M48
;Layer_Color=9474304
;FILE_FORMAT=4:3
METRIC,LZ
;TYPE=PLATED
T1F00S00C0.200
T2F00S00C1.850
%
T01
X-0003821Y-0005259
X-000075Y-0003675
X-00005Y-000145
X00005
X00035Y-000215
X0003475Y-000325
X000475Y-0003425
X0006182Y-0002009
Y0002009
X0001175Y0002475
X-000002Y000177
X-0002444Y0002281
X-000317Y00012
X-000315Y0000525
Y-000015
X-0006182Y-0002009
X-0003821Y0005259
X0Y000553
Y-00065
T02
X-00066Y0
X00066
M30
