G04*
G04 #@! TF.GenerationSoftware,Altium Limited,Altium Designer,20.1.14 (287)*
G04*
G04 Layer_Color=128*
%FSLAX43Y43*%
%MOMM*%
G71*
G04*
G04 #@! TF.SameCoordinates,4F5269AA-7076-45A1-A172-B2B228468667*
G04*
G04*
G04 #@! TF.FilePolarity,Positive*
G04*
G01*
G75*
%ADD42C,0.051*%
D42*
X-7525Y0D02*
X-5675D01*
X-6600Y-925D02*
Y925D01*
X5675Y0D02*
X7525D01*
X6600Y-925D02*
Y925D01*
X-850Y-3675D02*
X-650D01*
X-750Y-3775D02*
Y-3575D01*
X6082Y2009D02*
X6282D01*
X6182Y1909D02*
Y2109D01*
X-3921Y5259D02*
X-3721D01*
X-3821Y5159D02*
Y5359D01*
X-100Y5530D02*
X100D01*
X0Y5431D02*
Y5630D01*
X-2544Y2281D02*
X-2344D01*
X-2444Y2181D02*
Y2381D01*
X-3270Y1200D02*
X-3069D01*
X-3170Y1100D02*
Y1300D01*
X4650Y-3425D02*
X4850D01*
X4750Y-3525D02*
Y-3325D01*
X3375Y-3250D02*
X3575D01*
X3475Y-3350D02*
Y-3150D01*
X-3250Y-150D02*
X-3050D01*
X-3150Y-250D02*
Y-50D01*
X6082Y-2009D02*
X6282D01*
X6182Y-2109D02*
Y-1909D01*
X-100Y-6500D02*
X100D01*
X0Y-6600D02*
Y-6400D01*
X-3921Y-5259D02*
X-3721D01*
X-3821Y-5359D02*
Y-5159D01*
X-6282Y-2009D02*
X-6082D01*
X-6182Y-2109D02*
Y-1909D01*
X-120Y1770D02*
X80D01*
X-20Y1669D02*
Y1870D01*
X-3250Y525D02*
X-3050D01*
X-3150Y425D02*
Y625D01*
X3400Y-2150D02*
X3600D01*
X3500Y-2250D02*
Y-2050D01*
X1075Y2475D02*
X1275D01*
X1175Y2375D02*
Y2575D01*
X400Y-1450D02*
X600D01*
X500Y-1550D02*
Y-1350D01*
X-600Y-1450D02*
X-400D01*
X-500Y-1550D02*
Y-1350D01*
M02*
