G04*
G04 #@! TF.GenerationSoftware,Altium Limited,Altium Designer,20.1.14 (287)*
G04*
G04 Layer_Physical_Order=1*
G04 Layer_Color=255*
%FSLAX43Y43*%
%MOMM*%
G71*
G04*
G04 #@! TF.SameCoordinates,4F5269AA-7076-45A1-A172-B2B228468667*
G04*
G04*
G04 #@! TF.FilePolarity,Positive*
G04*
G01*
G75*
%ADD25C,0.127*%
%ADD26R,0.350X0.200*%
G04:AMPARAMS|DCode=27|XSize=0.35mm|YSize=0.2mm|CornerRadius=0mm|HoleSize=0mm|Usage=FLASHONLY|Rotation=324.000|XOffset=0mm|YOffset=0mm|HoleType=Round|Shape=Rectangle|*
%AMROTATEDRECTD27*
4,1,4,-0.200,0.022,-0.083,0.184,0.200,-0.022,0.083,-0.184,-0.200,0.022,0.0*
%
%ADD27ROTATEDRECTD27*%

G04:AMPARAMS|DCode=28|XSize=0.35mm|YSize=0.2mm|CornerRadius=0mm|HoleSize=0mm|Usage=FLASHONLY|Rotation=288.000|XOffset=0mm|YOffset=0mm|HoleType=Round|Shape=Rectangle|*
%AMROTATEDRECTD28*
4,1,4,-0.149,0.136,0.041,0.197,0.149,-0.136,-0.041,-0.197,-0.149,0.136,0.0*
%
%ADD28ROTATEDRECTD28*%

%ADD29R,0.250X0.200*%
G04:AMPARAMS|DCode=30|XSize=0.35mm|YSize=0.2mm|CornerRadius=0mm|HoleSize=0mm|Usage=FLASHONLY|Rotation=252.000|XOffset=0mm|YOffset=0mm|HoleType=Round|Shape=Rectangle|*
%AMROTATEDRECTD30*
4,1,4,-0.041,0.197,0.149,0.136,0.041,-0.197,-0.149,-0.136,-0.041,0.197,0.0*
%
%ADD30ROTATEDRECTD30*%

%ADD31R,0.240X0.900*%
%ADD32R,0.900X0.240*%
%ADD33R,1.900X0.900*%
%ADD34R,0.200X0.250*%
%ADD35C,0.160*%
G04:AMPARAMS|DCode=36|XSize=0.35mm|YSize=0.2mm|CornerRadius=0mm|HoleSize=0mm|Usage=FLASHONLY|Rotation=216.000|XOffset=0mm|YOffset=0mm|HoleType=Round|Shape=Rectangle|*
%AMROTATEDRECTD36*
4,1,4,0.083,0.184,0.200,0.022,-0.083,-0.184,-0.200,-0.022,0.083,0.184,0.0*
%
%ADD36ROTATEDRECTD36*%

%ADD37C,2.400*%
%ADD38C,0.450*%
G36*
X2568Y4328D02*
X2571D01*
X2576Y4328D01*
X2586Y4327D01*
X2598Y4326D01*
X2610Y4324D01*
X2624Y4322D01*
X2638Y4319D01*
X2653Y4316D01*
X2668Y4311D01*
X2684Y4306D01*
X2698Y4300D01*
X2712Y4293D01*
X2725Y4285D01*
X2737Y4275D01*
X2738Y4275D01*
X2740Y4273D01*
X2743Y4270D01*
X2747Y4266D01*
X2752Y4261D01*
X2757Y4254D01*
X2762Y4247D01*
X2768Y4238D01*
X2774Y4229D01*
X2780Y4218D01*
X2785Y4206D01*
X2790Y4194D01*
X2795Y4181D01*
X2798Y4166D01*
X2800Y4151D01*
X2802Y4135D01*
X2673Y4129D01*
Y4130D01*
X2672Y4132D01*
X2672Y4134D01*
X2671Y4137D01*
X2670Y4141D01*
X2668Y4146D01*
X2667Y4151D01*
X2665Y4157D01*
X2660Y4168D01*
X2654Y4180D01*
X2646Y4191D01*
X2642Y4196D01*
X2637Y4200D01*
X2637Y4200D01*
X2636Y4201D01*
X2634Y4202D01*
X2632Y4203D01*
X2629Y4205D01*
X2625Y4207D01*
X2621Y4209D01*
X2617Y4211D01*
X2611Y4213D01*
X2605Y4215D01*
X2598Y4217D01*
X2591Y4219D01*
X2583Y4220D01*
X2575Y4221D01*
X2565Y4222D01*
X2550D01*
X2546Y4221D01*
X2541Y4221D01*
X2536Y4220D01*
X2530Y4220D01*
X2523Y4219D01*
X2509Y4216D01*
X2494Y4212D01*
X2487Y4209D01*
X2480Y4206D01*
X2473Y4202D01*
X2467Y4198D01*
X2466Y4198D01*
X2464Y4195D01*
X2460Y4192D01*
X2457Y4188D01*
X2453Y4182D01*
X2450Y4176D01*
X2447Y4168D01*
X2447Y4163D01*
X2447Y4159D01*
Y4158D01*
Y4158D01*
X2447Y4155D01*
X2447Y4151D01*
X2449Y4145D01*
X2451Y4139D01*
X2454Y4133D01*
X2459Y4127D01*
X2466Y4120D01*
X2466D01*
X2467Y4119D01*
X2468Y4118D01*
X2471Y4116D01*
X2474Y4114D01*
X2478Y4112D01*
X2484Y4110D01*
X2490Y4107D01*
X2497Y4104D01*
X2505Y4101D01*
X2515Y4097D01*
X2526Y4093D01*
X2539Y4089D01*
X2552Y4085D01*
X2568Y4081D01*
X2584Y4077D01*
X2585D01*
X2585Y4077D01*
X2587D01*
X2588Y4076D01*
X2593Y4075D01*
X2600Y4073D01*
X2607Y4071D01*
X2617Y4069D01*
X2626Y4066D01*
X2637Y4063D01*
X2648Y4059D01*
X2660Y4056D01*
X2683Y4048D01*
X2694Y4044D01*
X2704Y4040D01*
X2715Y4035D01*
X2723Y4031D01*
X2724Y4030D01*
X2725Y4030D01*
X2728Y4029D01*
X2731Y4027D01*
X2735Y4024D01*
X2739Y4021D01*
X2744Y4018D01*
X2749Y4014D01*
X2755Y4010D01*
X2760Y4004D01*
X2766Y3999D01*
X2772Y3993D01*
X2784Y3980D01*
X2789Y3973D01*
X2794Y3966D01*
X2795Y3965D01*
X2795Y3964D01*
X2796Y3961D01*
X2798Y3958D01*
X2800Y3954D01*
X2803Y3949D01*
X2805Y3944D01*
X2807Y3937D01*
X2809Y3931D01*
X2812Y3923D01*
X2814Y3914D01*
X2816Y3906D01*
X2818Y3896D01*
X2819Y3886D01*
X2820Y3875D01*
X2820Y3864D01*
Y3863D01*
Y3862D01*
Y3858D01*
X2820Y3855D01*
X2819Y3850D01*
X2818Y3844D01*
X2817Y3838D01*
X2816Y3831D01*
X2815Y3823D01*
X2813Y3814D01*
X2810Y3806D01*
X2807Y3797D01*
X2803Y3788D01*
X2799Y3779D01*
X2795Y3770D01*
X2789Y3761D01*
X2789Y3760D01*
X2788Y3759D01*
X2786Y3756D01*
X2784Y3753D01*
X2780Y3749D01*
X2777Y3745D01*
X2772Y3740D01*
X2767Y3734D01*
X2761Y3728D01*
X2754Y3722D01*
X2747Y3716D01*
X2740Y3711D01*
X2731Y3705D01*
X2723Y3699D01*
X2713Y3694D01*
X2703Y3690D01*
X2702Y3689D01*
X2700Y3689D01*
X2697Y3687D01*
X2692Y3686D01*
X2687Y3684D01*
X2681Y3682D01*
X2673Y3680D01*
X2665Y3678D01*
X2655Y3676D01*
X2644Y3674D01*
X2633Y3672D01*
X2621Y3670D01*
X2608Y3669D01*
X2594Y3667D01*
X2579Y3667D01*
X2564Y3667D01*
X2556D01*
X2552Y3667D01*
X2548D01*
X2544Y3667D01*
X2534Y3668D01*
X2522Y3669D01*
X2509Y3671D01*
X2495Y3673D01*
X2480Y3677D01*
X2465Y3680D01*
X2449Y3685D01*
X2434Y3690D01*
X2419Y3697D01*
X2404Y3704D01*
X2390Y3713D01*
X2377Y3722D01*
X2376Y3723D01*
X2374Y3725D01*
X2371Y3728D01*
X2367Y3733D01*
X2362Y3739D01*
X2356Y3746D01*
X2350Y3754D01*
X2343Y3764D01*
X2337Y3775D01*
X2330Y3787D01*
X2324Y3801D01*
X2318Y3815D01*
X2312Y3831D01*
X2307Y3848D01*
X2303Y3867D01*
X2300Y3886D01*
X2426Y3898D01*
Y3897D01*
X2426Y3895D01*
X2427Y3892D01*
X2428Y3888D01*
X2429Y3882D01*
X2431Y3876D01*
X2433Y3870D01*
X2435Y3863D01*
X2442Y3848D01*
X2446Y3840D01*
X2450Y3832D01*
X2454Y3825D01*
X2459Y3818D01*
X2466Y3811D01*
X2472Y3805D01*
X2472Y3805D01*
X2473Y3804D01*
X2475Y3802D01*
X2478Y3801D01*
X2481Y3798D01*
X2486Y3796D01*
X2490Y3793D01*
X2496Y3790D01*
X2502Y3788D01*
X2510Y3785D01*
X2517Y3783D01*
X2526Y3780D01*
X2535Y3778D01*
X2545Y3777D01*
X2555Y3776D01*
X2565Y3776D01*
X2571D01*
X2576Y3776D01*
X2581Y3777D01*
X2587Y3777D01*
X2594Y3778D01*
X2600Y3779D01*
X2616Y3782D01*
X2624Y3784D01*
X2631Y3787D01*
X2639Y3790D01*
X2646Y3793D01*
X2653Y3797D01*
X2659Y3802D01*
X2660Y3802D01*
X2661Y3803D01*
X2662Y3805D01*
X2664Y3807D01*
X2667Y3809D01*
X2669Y3812D01*
X2672Y3816D01*
X2675Y3820D01*
X2681Y3829D01*
X2686Y3839D01*
X2688Y3845D01*
X2690Y3851D01*
X2691Y3857D01*
X2691Y3863D01*
Y3864D01*
Y3864D01*
Y3867D01*
X2691Y3871D01*
X2689Y3877D01*
X2688Y3883D01*
X2686Y3889D01*
X2682Y3896D01*
X2678Y3902D01*
X2677Y3903D01*
X2675Y3905D01*
X2672Y3907D01*
X2667Y3912D01*
X2661Y3916D01*
X2652Y3921D01*
X2643Y3925D01*
X2637Y3928D01*
X2631Y3930D01*
X2631D01*
X2630Y3931D01*
X2628Y3931D01*
X2626Y3931D01*
X2623Y3932D01*
X2619Y3934D01*
X2615Y3935D01*
X2610Y3937D01*
X2603Y3938D01*
X2596Y3940D01*
X2588Y3943D01*
X2578Y3945D01*
X2567Y3948D01*
X2555Y3951D01*
X2542Y3954D01*
X2527Y3958D01*
X2527D01*
X2526Y3958D01*
X2525D01*
X2523Y3959D01*
X2521Y3960D01*
X2518Y3961D01*
X2511Y3962D01*
X2502Y3965D01*
X2492Y3968D01*
X2482Y3972D01*
X2471Y3975D01*
X2459Y3980D01*
X2447Y3985D01*
X2434Y3990D01*
X2422Y3995D01*
X2411Y4001D01*
X2400Y4008D01*
X2391Y4014D01*
X2382Y4021D01*
X2381Y4022D01*
X2380Y4023D01*
X2376Y4027D01*
X2373Y4030D01*
X2368Y4035D01*
X2363Y4042D01*
X2358Y4049D01*
X2353Y4057D01*
X2347Y4066D01*
X2342Y4076D01*
X2337Y4086D01*
X2332Y4097D01*
X2329Y4109D01*
X2325Y4122D01*
X2324Y4136D01*
X2323Y4150D01*
Y4150D01*
Y4152D01*
Y4154D01*
X2324Y4158D01*
X2324Y4162D01*
X2325Y4167D01*
X2325Y4173D01*
X2326Y4180D01*
X2328Y4186D01*
X2330Y4194D01*
X2332Y4201D01*
X2335Y4209D01*
X2338Y4217D01*
X2342Y4225D01*
X2346Y4233D01*
X2350Y4241D01*
X2351Y4242D01*
X2352Y4243D01*
X2353Y4245D01*
X2355Y4248D01*
X2358Y4252D01*
X2362Y4256D01*
X2366Y4260D01*
X2371Y4265D01*
X2376Y4270D01*
X2382Y4276D01*
X2389Y4281D01*
X2396Y4286D01*
X2404Y4292D01*
X2412Y4297D01*
X2421Y4302D01*
X2430Y4306D01*
X2431Y4306D01*
X2433Y4307D01*
X2436Y4308D01*
X2440Y4310D01*
X2445Y4311D01*
X2451Y4313D01*
X2458Y4315D01*
X2466Y4317D01*
X2474Y4319D01*
X2484Y4322D01*
X2494Y4323D01*
X2505Y4325D01*
X2517Y4327D01*
X2530Y4328D01*
X2543Y4328D01*
X2556Y4329D01*
X2564D01*
X2568Y4328D01*
D02*
G37*
G36*
X3544Y3678D02*
X3424D01*
X3424Y4182D01*
X3297Y3678D01*
X3173D01*
X3047Y4182D01*
Y3678D01*
X2927D01*
Y4318D01*
X3120D01*
X3236Y3881D01*
X3350Y4318D01*
X3544D01*
Y3678D01*
D02*
G37*
G36*
X3928Y4317D02*
X3936D01*
X3944Y4317D01*
X3954Y4317D01*
X3963Y4316D01*
X3973Y4315D01*
X3993Y4313D01*
X4003Y4311D01*
X4013Y4310D01*
X4022Y4308D01*
X4030Y4305D01*
X4030D01*
X4032Y4304D01*
X4035Y4304D01*
X4039Y4302D01*
X4044Y4300D01*
X4050Y4298D01*
X4056Y4295D01*
X4063Y4292D01*
X4071Y4288D01*
X4078Y4284D01*
X4086Y4279D01*
X4095Y4274D01*
X4102Y4267D01*
X4111Y4261D01*
X4119Y4254D01*
X4126Y4246D01*
X4127Y4246D01*
X4128Y4244D01*
X4130Y4242D01*
X4133Y4239D01*
X4137Y4235D01*
X4140Y4230D01*
X4144Y4224D01*
X4149Y4218D01*
X4154Y4210D01*
X4159Y4202D01*
X4164Y4194D01*
X4169Y4185D01*
X4174Y4175D01*
X4179Y4165D01*
X4183Y4154D01*
X4187Y4143D01*
X4188Y4142D01*
X4188Y4140D01*
X4189Y4137D01*
X4191Y4132D01*
X4193Y4126D01*
X4194Y4119D01*
X4196Y4110D01*
X4198Y4101D01*
X4200Y4090D01*
X4202Y4079D01*
X4204Y4066D01*
X4206Y4053D01*
X4207Y4039D01*
X4208Y4024D01*
X4209Y4008D01*
Y3992D01*
Y3991D01*
Y3988D01*
Y3984D01*
X4208Y3978D01*
Y3972D01*
X4208Y3963D01*
X4207Y3955D01*
X4206Y3945D01*
X4205Y3935D01*
X4204Y3924D01*
X4200Y3901D01*
X4195Y3878D01*
X4193Y3867D01*
X4189Y3856D01*
X4188Y3855D01*
X4188Y3852D01*
X4187Y3849D01*
X4184Y3844D01*
X4182Y3838D01*
X4179Y3831D01*
X4175Y3824D01*
X4171Y3815D01*
X4167Y3807D01*
X4162Y3797D01*
X4156Y3788D01*
X4150Y3778D01*
X4143Y3769D01*
X4136Y3760D01*
X4129Y3751D01*
X4120Y3742D01*
X4120Y3742D01*
X4119Y3741D01*
X4117Y3739D01*
X4114Y3737D01*
X4111Y3734D01*
X4107Y3731D01*
X4102Y3728D01*
X4096Y3724D01*
X4090Y3720D01*
X4083Y3716D01*
X4076Y3711D01*
X4068Y3707D01*
X4059Y3703D01*
X4050Y3699D01*
X4040Y3695D01*
X4030Y3691D01*
X4029D01*
X4028Y3691D01*
X4025Y3690D01*
X4022Y3690D01*
X4018Y3688D01*
X4012Y3687D01*
X4006Y3686D01*
X3999Y3685D01*
X3991Y3684D01*
X3983Y3682D01*
X3973Y3681D01*
X3963Y3680D01*
X3952Y3679D01*
X3941Y3679D01*
X3928Y3678D01*
X3673D01*
Y4318D01*
X3921D01*
X3928Y4317D01*
D02*
G37*
G36*
X2607Y3538D02*
X2610D01*
X2614Y3538D01*
X2619D01*
X2629Y3536D01*
X2640Y3535D01*
X2653Y3533D01*
X2667Y3530D01*
X2681Y3526D01*
X2697Y3521D01*
X2713Y3516D01*
X2729Y3509D01*
X2745Y3501D01*
X2760Y3492D01*
X2775Y3481D01*
X2790Y3469D01*
X2790Y3468D01*
X2791Y3467D01*
X2794Y3465D01*
X2796Y3461D01*
X2800Y3457D01*
X2804Y3452D01*
X2809Y3446D01*
X2814Y3439D01*
X2819Y3431D01*
X2825Y3422D01*
X2830Y3412D01*
X2836Y3402D01*
X2841Y3391D01*
X2846Y3379D01*
X2851Y3365D01*
X2855Y3351D01*
X2727Y3321D01*
Y3321D01*
X2727Y3323D01*
X2726Y3325D01*
X2725Y3329D01*
X2723Y3333D01*
X2722Y3338D01*
X2719Y3343D01*
X2717Y3349D01*
X2711Y3362D01*
X2706Y3368D01*
X2702Y3374D01*
X2698Y3381D01*
X2692Y3387D01*
X2686Y3393D01*
X2680Y3399D01*
X2679Y3399D01*
X2678Y3400D01*
X2676Y3402D01*
X2673Y3404D01*
X2670Y3406D01*
X2666Y3408D01*
X2661Y3411D01*
X2655Y3414D01*
X2649Y3416D01*
X2643Y3419D01*
X2635Y3421D01*
X2628Y3423D01*
X2619Y3425D01*
X2611Y3427D01*
X2602Y3428D01*
X2592Y3428D01*
X2589D01*
X2585Y3428D01*
X2581Y3427D01*
X2575Y3427D01*
X2568Y3425D01*
X2560Y3424D01*
X2551Y3422D01*
X2542Y3419D01*
X2533Y3416D01*
X2523Y3411D01*
X2514Y3406D01*
X2504Y3400D01*
X2495Y3394D01*
X2486Y3386D01*
X2477Y3377D01*
X2477Y3376D01*
X2475Y3374D01*
X2473Y3371D01*
X2470Y3367D01*
X2467Y3362D01*
X2463Y3355D01*
X2459Y3347D01*
X2455Y3337D01*
X2451Y3326D01*
X2447Y3314D01*
X2443Y3300D01*
X2440Y3286D01*
X2437Y3269D01*
X2435Y3251D01*
X2434Y3232D01*
X2433Y3211D01*
Y3211D01*
Y3210D01*
Y3208D01*
Y3206D01*
Y3203D01*
X2434Y3200D01*
Y3196D01*
X2434Y3191D01*
X2435Y3182D01*
X2435Y3170D01*
X2437Y3158D01*
X2439Y3144D01*
X2441Y3130D01*
X2444Y3116D01*
X2447Y3102D01*
X2452Y3087D01*
X2456Y3074D01*
X2462Y3061D01*
X2469Y3049D01*
X2477Y3039D01*
X2477Y3038D01*
X2478Y3037D01*
X2481Y3034D01*
X2484Y3031D01*
X2489Y3027D01*
X2494Y3023D01*
X2500Y3018D01*
X2507Y3013D01*
X2515Y3008D01*
X2523Y3004D01*
X2533Y3000D01*
X2543Y2995D01*
X2553Y2992D01*
X2565Y2990D01*
X2577Y2988D01*
X2590Y2988D01*
X2595D01*
X2599Y2988D01*
X2603Y2988D01*
X2608Y2989D01*
X2614Y2990D01*
X2620Y2992D01*
X2627Y2993D01*
X2634Y2995D01*
X2641Y2998D01*
X2649Y3001D01*
X2656Y3005D01*
X2664Y3009D01*
X2671Y3014D01*
X2678Y3020D01*
X2679Y3020D01*
X2680Y3021D01*
X2682Y3024D01*
X2684Y3026D01*
X2687Y3030D01*
X2691Y3034D01*
X2695Y3039D01*
X2699Y3045D01*
X2703Y3052D01*
X2708Y3060D01*
X2712Y3068D01*
X2717Y3077D01*
X2721Y3088D01*
X2725Y3098D01*
X2729Y3111D01*
X2732Y3123D01*
X2857Y3084D01*
Y3083D01*
X2857Y3082D01*
X2856Y3081D01*
X2856Y3079D01*
X2855Y3077D01*
X2854Y3074D01*
X2852Y3067D01*
X2848Y3058D01*
X2844Y3048D01*
X2839Y3037D01*
X2834Y3025D01*
X2828Y3013D01*
X2821Y3000D01*
X2813Y2987D01*
X2804Y2974D01*
X2795Y2961D01*
X2784Y2949D01*
X2773Y2938D01*
X2761Y2928D01*
X2760Y2927D01*
X2758Y2926D01*
X2754Y2923D01*
X2749Y2920D01*
X2742Y2916D01*
X2735Y2912D01*
X2725Y2907D01*
X2715Y2902D01*
X2703Y2898D01*
X2690Y2893D01*
X2676Y2889D01*
X2661Y2885D01*
X2645Y2882D01*
X2628Y2879D01*
X2610Y2878D01*
X2591Y2877D01*
X2586D01*
X2582Y2878D01*
X2579D01*
X2575Y2878D01*
X2570Y2878D01*
X2565Y2879D01*
X2559Y2880D01*
X2546Y2882D01*
X2533Y2884D01*
X2517Y2888D01*
X2501Y2892D01*
X2484Y2898D01*
X2467Y2905D01*
X2449Y2914D01*
X2432Y2924D01*
X2414Y2935D01*
X2406Y2942D01*
X2398Y2949D01*
X2390Y2956D01*
X2382Y2964D01*
Y2964D01*
X2381Y2965D01*
X2380Y2966D01*
X2378Y2968D01*
X2376Y2970D01*
X2374Y2973D01*
X2372Y2976D01*
X2369Y2980D01*
X2366Y2984D01*
X2363Y2989D01*
X2360Y2994D01*
X2356Y3000D01*
X2349Y3012D01*
X2341Y3026D01*
X2333Y3043D01*
X2326Y3060D01*
X2319Y3080D01*
X2313Y3101D01*
X2307Y3124D01*
X2304Y3148D01*
X2301Y3174D01*
X2300Y3188D01*
X2300Y3202D01*
Y3203D01*
Y3204D01*
Y3206D01*
Y3209D01*
X2300Y3213D01*
Y3217D01*
X2301Y3222D01*
X2301Y3228D01*
X2302Y3235D01*
X2302Y3242D01*
X2303Y3249D01*
X2304Y3257D01*
X2307Y3274D01*
X2310Y3293D01*
X2315Y3313D01*
X2320Y3333D01*
X2327Y3353D01*
X2335Y3374D01*
X2344Y3394D01*
X2355Y3414D01*
X2368Y3433D01*
X2375Y3441D01*
X2382Y3450D01*
X2383Y3450D01*
X2383Y3451D01*
X2385Y3452D01*
X2386Y3454D01*
X2391Y3458D01*
X2397Y3464D01*
X2405Y3471D01*
X2416Y3478D01*
X2427Y3486D01*
X2440Y3494D01*
X2455Y3503D01*
X2472Y3510D01*
X2489Y3518D01*
X2508Y3525D01*
X2529Y3530D01*
X2551Y3535D01*
X2575Y3538D01*
X2587Y3538D01*
X2599Y3539D01*
X2604D01*
X2607Y3538D01*
D02*
G37*
G36*
X5279Y3362D02*
X5284Y3361D01*
X5288Y3361D01*
X5293Y3360D01*
X5305Y3358D01*
X5317Y3356D01*
X5330Y3352D01*
X5343Y3347D01*
X5343D01*
X5344Y3347D01*
X5346Y3346D01*
X5348Y3344D01*
X5351Y3343D01*
X5354Y3341D01*
X5362Y3337D01*
X5370Y3331D01*
X5378Y3325D01*
X5387Y3318D01*
X5394Y3310D01*
Y3309D01*
X5394Y3309D01*
X5395Y3307D01*
X5396Y3306D01*
X5400Y3301D01*
X5403Y3295D01*
X5407Y3287D01*
X5411Y3279D01*
X5415Y3269D01*
X5418Y3258D01*
Y3258D01*
X5419Y3257D01*
Y3256D01*
X5419Y3253D01*
X5420Y3250D01*
X5420Y3246D01*
X5421Y3242D01*
X5422Y3237D01*
X5422Y3232D01*
X5423Y3226D01*
X5424Y3219D01*
X5424Y3211D01*
X5425Y3203D01*
Y3195D01*
X5425Y3185D01*
Y3176D01*
Y2888D01*
X5303D01*
Y3124D01*
Y3125D01*
Y3128D01*
Y3131D01*
Y3136D01*
X5302Y3142D01*
Y3149D01*
Y3157D01*
X5302Y3165D01*
X5301Y3181D01*
X5300Y3189D01*
X5299Y3197D01*
X5298Y3204D01*
X5297Y3211D01*
X5296Y3217D01*
X5294Y3221D01*
Y3222D01*
X5294Y3222D01*
X5293Y3225D01*
X5291Y3229D01*
X5288Y3234D01*
X5284Y3239D01*
X5280Y3245D01*
X5275Y3251D01*
X5269Y3256D01*
X5268Y3256D01*
X5266Y3258D01*
X5262Y3260D01*
X5257Y3262D01*
X5251Y3264D01*
X5243Y3266D01*
X5235Y3268D01*
X5226Y3268D01*
X5223D01*
X5221Y3268D01*
X5218D01*
X5215Y3267D01*
X5207Y3266D01*
X5198Y3264D01*
X5188Y3261D01*
X5178Y3257D01*
X5168Y3251D01*
X5168D01*
X5168Y3250D01*
X5166Y3249D01*
X5164Y3247D01*
X5160Y3244D01*
X5155Y3238D01*
X5149Y3232D01*
X5143Y3223D01*
X5138Y3214D01*
X5134Y3204D01*
Y3203D01*
X5133Y3203D01*
X5133Y3201D01*
X5132Y3198D01*
X5131Y3195D01*
X5131Y3191D01*
X5130Y3186D01*
X5129Y3180D01*
X5128Y3173D01*
X5127Y3166D01*
X5127Y3157D01*
X5126Y3147D01*
X5125Y3136D01*
X5125Y3124D01*
X5125Y3111D01*
Y3098D01*
Y2888D01*
X5002D01*
Y3352D01*
X5116D01*
Y3283D01*
X5117Y3284D01*
X5119Y3287D01*
X5122Y3291D01*
X5127Y3296D01*
X5133Y3301D01*
X5140Y3308D01*
X5148Y3315D01*
X5158Y3323D01*
X5168Y3330D01*
X5180Y3337D01*
X5192Y3344D01*
X5206Y3349D01*
X5220Y3355D01*
X5235Y3359D01*
X5252Y3361D01*
X5269Y3362D01*
X5276D01*
X5279Y3362D01*
D02*
G37*
G36*
X4381Y2888D02*
X4258D01*
Y3528D01*
X4381D01*
Y2888D01*
D02*
G37*
G36*
X4132D02*
X4010D01*
Y3528D01*
X4132D01*
Y2888D01*
D02*
G37*
G36*
X3708Y3362D02*
X3715D01*
X3722Y3361D01*
X3731Y3361D01*
X3740Y3360D01*
X3750Y3359D01*
X3760Y3357D01*
X3781Y3354D01*
X3790Y3352D01*
X3800Y3349D01*
X3809Y3346D01*
X3817Y3343D01*
X3817D01*
X3819Y3342D01*
X3820Y3341D01*
X3823Y3339D01*
X3826Y3337D01*
X3830Y3335D01*
X3839Y3329D01*
X3848Y3322D01*
X3857Y3313D01*
X3866Y3304D01*
X3870Y3299D01*
X3873Y3293D01*
Y3293D01*
X3874Y3292D01*
X3875Y3290D01*
X3876Y3287D01*
X3877Y3284D01*
X3878Y3279D01*
X3880Y3274D01*
X3881Y3268D01*
X3883Y3261D01*
X3885Y3253D01*
X3886Y3244D01*
X3887Y3234D01*
X3888Y3223D01*
X3889Y3211D01*
X3890Y3197D01*
Y3183D01*
X3888Y3040D01*
Y3040D01*
Y3037D01*
Y3034D01*
Y3030D01*
Y3025D01*
X3888Y3019D01*
Y3013D01*
X3889Y3006D01*
X3889Y2991D01*
X3890Y2976D01*
X3891Y2969D01*
X3892Y2962D01*
X3893Y2956D01*
X3893Y2950D01*
Y2950D01*
X3894Y2949D01*
Y2947D01*
X3895Y2945D01*
X3895Y2942D01*
X3896Y2939D01*
X3899Y2932D01*
X3901Y2922D01*
X3905Y2912D01*
X3910Y2900D01*
X3916Y2888D01*
X3795D01*
Y2889D01*
X3794Y2890D01*
X3793Y2893D01*
X3791Y2897D01*
X3789Y2902D01*
X3787Y2908D01*
X3785Y2916D01*
X3783Y2924D01*
Y2925D01*
X3782Y2926D01*
X3782Y2928D01*
X3781Y2930D01*
X3779Y2935D01*
X3779Y2937D01*
X3778Y2939D01*
X3778Y2938D01*
X3777Y2937D01*
X3775Y2936D01*
X3773Y2933D01*
X3770Y2931D01*
X3766Y2928D01*
X3763Y2925D01*
X3758Y2921D01*
X3748Y2914D01*
X3737Y2906D01*
X3724Y2899D01*
X3711Y2893D01*
X3710D01*
X3709Y2892D01*
X3707Y2891D01*
X3705Y2890D01*
X3701Y2889D01*
X3697Y2888D01*
X3693Y2887D01*
X3688Y2885D01*
X3683Y2884D01*
X3677Y2882D01*
X3664Y2880D01*
X3649Y2878D01*
X3635Y2878D01*
X3631D01*
X3628Y2878D01*
X3623D01*
X3617Y2879D01*
X3610Y2879D01*
X3602Y2881D01*
X3593Y2883D01*
X3585Y2884D01*
X3575Y2887D01*
X3566Y2890D01*
X3557Y2894D01*
X3548Y2898D01*
X3538Y2903D01*
X3530Y2909D01*
X3522Y2916D01*
X3521Y2917D01*
X3520Y2918D01*
X3518Y2921D01*
X3515Y2923D01*
X3512Y2927D01*
X3509Y2932D01*
X3505Y2937D01*
X3501Y2943D01*
X3497Y2950D01*
X3494Y2957D01*
X3490Y2965D01*
X3487Y2974D01*
X3484Y2983D01*
X3483Y2993D01*
X3481Y3004D01*
X3481Y3014D01*
Y3015D01*
Y3016D01*
Y3018D01*
X3481Y3021D01*
Y3025D01*
X3482Y3028D01*
X3482Y3033D01*
X3483Y3038D01*
X3485Y3049D01*
X3489Y3061D01*
X3493Y3073D01*
X3499Y3084D01*
X3500Y3085D01*
X3500Y3086D01*
X3501Y3087D01*
X3503Y3089D01*
X3507Y3095D01*
X3513Y3102D01*
X3520Y3109D01*
X3529Y3117D01*
X3540Y3125D01*
X3552Y3131D01*
X3552D01*
X3553Y3132D01*
X3556Y3133D01*
X3558Y3134D01*
X3562Y3135D01*
X3566Y3137D01*
X3571Y3139D01*
X3577Y3141D01*
X3583Y3143D01*
X3591Y3146D01*
X3599Y3148D01*
X3607Y3150D01*
X3617Y3153D01*
X3627Y3155D01*
X3638Y3158D01*
X3649Y3160D01*
X3650D01*
X3653Y3161D01*
X3658Y3161D01*
X3663Y3163D01*
X3670Y3164D01*
X3679Y3166D01*
X3687Y3168D01*
X3697Y3170D01*
X3716Y3175D01*
X3736Y3180D01*
X3745Y3182D01*
X3754Y3185D01*
X3762Y3188D01*
X3769Y3190D01*
Y3203D01*
Y3203D01*
Y3204D01*
Y3206D01*
X3768Y3208D01*
Y3211D01*
X3768Y3215D01*
X3766Y3222D01*
X3764Y3230D01*
X3761Y3239D01*
X3757Y3246D01*
X3754Y3250D01*
X3751Y3253D01*
X3750Y3253D01*
X3749Y3254D01*
X3747Y3255D01*
X3746Y3257D01*
X3743Y3258D01*
X3740Y3259D01*
X3736Y3261D01*
X3732Y3262D01*
X3727Y3264D01*
X3722Y3264D01*
X3716Y3266D01*
X3709Y3267D01*
X3702Y3268D01*
X3694Y3268D01*
X3679D01*
X3677Y3268D01*
X3673D01*
X3667Y3267D01*
X3658Y3265D01*
X3649Y3263D01*
X3641Y3259D01*
X3634Y3255D01*
X3633Y3255D01*
X3631Y3253D01*
X3627Y3249D01*
X3624Y3245D01*
X3619Y3239D01*
X3614Y3231D01*
X3609Y3221D01*
X3605Y3210D01*
X3493Y3230D01*
X3494Y3231D01*
X3494Y3233D01*
X3495Y3236D01*
X3497Y3241D01*
X3499Y3246D01*
X3501Y3253D01*
X3505Y3260D01*
X3508Y3267D01*
X3512Y3276D01*
X3517Y3283D01*
X3522Y3292D01*
X3528Y3300D01*
X3534Y3308D01*
X3542Y3316D01*
X3549Y3323D01*
X3557Y3329D01*
X3558Y3330D01*
X3560Y3331D01*
X3562Y3332D01*
X3566Y3334D01*
X3571Y3337D01*
X3577Y3339D01*
X3584Y3343D01*
X3592Y3346D01*
X3601Y3349D01*
X3611Y3352D01*
X3623Y3355D01*
X3635Y3357D01*
X3648Y3359D01*
X3662Y3361D01*
X3678Y3362D01*
X3694Y3362D01*
X3702D01*
X3708Y3362D01*
D02*
G37*
G36*
X3089Y3292D02*
X3090Y3293D01*
X3092Y3295D01*
X3095Y3299D01*
X3100Y3303D01*
X3105Y3308D01*
X3112Y3314D01*
X3120Y3320D01*
X3129Y3327D01*
X3139Y3334D01*
X3150Y3340D01*
X3162Y3346D01*
X3174Y3351D01*
X3187Y3356D01*
X3201Y3359D01*
X3216Y3361D01*
X3231Y3362D01*
X3238D01*
X3242Y3362D01*
X3246Y3361D01*
X3251Y3361D01*
X3256Y3360D01*
X3268Y3358D01*
X3281Y3356D01*
X3294Y3351D01*
X3307Y3346D01*
X3307D01*
X3308Y3345D01*
X3310Y3345D01*
X3312Y3343D01*
X3315Y3342D01*
X3318Y3340D01*
X3326Y3335D01*
X3335Y3330D01*
X3343Y3323D01*
X3351Y3315D01*
X3358Y3306D01*
Y3306D01*
X3359Y3305D01*
X3360Y3304D01*
X3361Y3302D01*
X3362Y3300D01*
X3364Y3297D01*
X3368Y3290D01*
X3372Y3282D01*
X3376Y3273D01*
X3379Y3263D01*
X3382Y3251D01*
Y3251D01*
X3383Y3250D01*
Y3248D01*
X3383Y3246D01*
X3384Y3243D01*
X3384Y3239D01*
X3385Y3234D01*
X3385Y3229D01*
X3386Y3223D01*
X3387Y3216D01*
X3387Y3209D01*
X3388Y3201D01*
X3388Y3191D01*
Y3182D01*
X3389Y3171D01*
Y3160D01*
Y2888D01*
X3266D01*
Y3133D01*
Y3134D01*
Y3136D01*
Y3140D01*
Y3144D01*
Y3150D01*
X3266Y3157D01*
Y3164D01*
X3265Y3172D01*
X3264Y3187D01*
X3264Y3195D01*
X3263Y3203D01*
X3262Y3209D01*
X3261Y3215D01*
X3260Y3221D01*
X3259Y3225D01*
X3258Y3226D01*
X3257Y3228D01*
X3256Y3232D01*
X3253Y3236D01*
X3250Y3241D01*
X3245Y3246D01*
X3240Y3251D01*
X3234Y3256D01*
X3233Y3257D01*
X3231Y3258D01*
X3227Y3260D01*
X3222Y3262D01*
X3216Y3264D01*
X3208Y3266D01*
X3200Y3268D01*
X3190Y3268D01*
X3185D01*
X3182Y3268D01*
X3179Y3267D01*
X3172Y3266D01*
X3163Y3264D01*
X3154Y3262D01*
X3145Y3258D01*
X3135Y3253D01*
X3135D01*
X3134Y3252D01*
X3132Y3250D01*
X3127Y3246D01*
X3122Y3242D01*
X3116Y3235D01*
X3110Y3228D01*
X3105Y3219D01*
X3100Y3208D01*
Y3208D01*
X3100Y3207D01*
X3099Y3205D01*
X3098Y3203D01*
X3097Y3199D01*
X3097Y3196D01*
X3096Y3191D01*
X3095Y3186D01*
X3094Y3180D01*
X3093Y3174D01*
X3092Y3166D01*
X3091Y3159D01*
X3090Y3150D01*
X3090Y3141D01*
X3089Y3131D01*
Y3120D01*
Y2888D01*
X2967D01*
Y3528D01*
X3089D01*
Y3292D01*
D02*
G37*
G36*
X6279Y3362D02*
X6282D01*
X6289Y3361D01*
X6298Y3360D01*
X6308Y3358D01*
X6319Y3356D01*
X6331Y3354D01*
X6344Y3350D01*
X6357Y3345D01*
X6370Y3340D01*
X6384Y3333D01*
X6398Y3325D01*
X6411Y3316D01*
X6423Y3306D01*
X6435Y3294D01*
X6435Y3293D01*
X6437Y3290D01*
X6440Y3286D01*
X6444Y3281D01*
X6449Y3273D01*
X6454Y3264D01*
X6459Y3254D01*
X6464Y3242D01*
X6470Y3228D01*
X6475Y3212D01*
X6480Y3195D01*
X6485Y3176D01*
X6488Y3156D01*
X6491Y3134D01*
X6492Y3110D01*
X6492Y3084D01*
X6185D01*
Y3084D01*
Y3082D01*
X6185Y3079D01*
Y3075D01*
X6186Y3071D01*
X6187Y3065D01*
X6188Y3060D01*
X6189Y3053D01*
X6192Y3039D01*
X6195Y3032D01*
X6197Y3025D01*
X6201Y3019D01*
X6205Y3012D01*
X6209Y3005D01*
X6214Y2999D01*
X6215Y2999D01*
X6216Y2998D01*
X6217Y2996D01*
X6219Y2994D01*
X6222Y2992D01*
X6226Y2989D01*
X6229Y2987D01*
X6234Y2984D01*
X6239Y2981D01*
X6244Y2979D01*
X6256Y2974D01*
X6263Y2972D01*
X6270Y2970D01*
X6277Y2970D01*
X6285Y2969D01*
X6288D01*
X6290Y2970D01*
X6295Y2970D01*
X6302Y2971D01*
X6310Y2973D01*
X6318Y2976D01*
X6326Y2979D01*
X6334Y2984D01*
X6334D01*
X6335Y2985D01*
X6337Y2988D01*
X6341Y2991D01*
X6345Y2997D01*
X6350Y3004D01*
X6355Y3013D01*
X6360Y3023D01*
X6364Y3035D01*
X6486Y3015D01*
X6485Y3014D01*
X6485Y3012D01*
X6484Y3008D01*
X6481Y3004D01*
X6479Y2998D01*
X6476Y2992D01*
X6472Y2984D01*
X6467Y2977D01*
X6463Y2969D01*
X6457Y2960D01*
X6451Y2951D01*
X6444Y2943D01*
X6437Y2935D01*
X6429Y2927D01*
X6420Y2919D01*
X6411Y2912D01*
X6411Y2912D01*
X6409Y2911D01*
X6406Y2909D01*
X6402Y2907D01*
X6397Y2904D01*
X6391Y2901D01*
X6384Y2898D01*
X6376Y2895D01*
X6367Y2892D01*
X6358Y2889D01*
X6347Y2885D01*
X6336Y2883D01*
X6324Y2881D01*
X6311Y2879D01*
X6298Y2878D01*
X6284Y2878D01*
X6279D01*
X6276Y2878D01*
X6272D01*
X6269Y2878D01*
X6264Y2879D01*
X6254Y2880D01*
X6243Y2882D01*
X6230Y2884D01*
X6216Y2887D01*
X6202Y2891D01*
X6187Y2897D01*
X6172Y2903D01*
X6157Y2911D01*
X6143Y2920D01*
X6130Y2930D01*
X6117Y2942D01*
X6105Y2956D01*
X6105Y2957D01*
X6103Y2959D01*
X6101Y2963D01*
X6098Y2968D01*
X6094Y2974D01*
X6091Y2981D01*
X6087Y2990D01*
X6082Y3000D01*
X6078Y3011D01*
X6074Y3023D01*
X6070Y3036D01*
X6067Y3050D01*
X6063Y3065D01*
X6061Y3081D01*
X6060Y3098D01*
X6059Y3116D01*
Y3117D01*
Y3117D01*
Y3119D01*
Y3121D01*
X6060Y3124D01*
Y3127D01*
Y3131D01*
X6060Y3135D01*
X6061Y3145D01*
X6062Y3156D01*
X6064Y3168D01*
X6067Y3182D01*
X6070Y3196D01*
X6074Y3211D01*
X6079Y3226D01*
X6085Y3241D01*
X6092Y3256D01*
X6099Y3270D01*
X6109Y3283D01*
X6119Y3296D01*
X6120Y3297D01*
X6122Y3299D01*
X6125Y3302D01*
X6130Y3307D01*
X6136Y3312D01*
X6143Y3317D01*
X6152Y3323D01*
X6161Y3329D01*
X6172Y3335D01*
X6183Y3341D01*
X6196Y3347D01*
X6209Y3352D01*
X6223Y3356D01*
X6239Y3359D01*
X6255Y3361D01*
X6272Y3362D01*
X6277D01*
X6279Y3362D01*
D02*
G37*
G36*
X4690D02*
X4693D01*
X4700Y3361D01*
X4709Y3360D01*
X4719Y3358D01*
X4730Y3356D01*
X4742Y3354D01*
X4755Y3350D01*
X4768Y3345D01*
X4782Y3340D01*
X4795Y3333D01*
X4809Y3325D01*
X4822Y3316D01*
X4834Y3306D01*
X4846Y3294D01*
X4846Y3293D01*
X4849Y3290D01*
X4851Y3286D01*
X4855Y3281D01*
X4860Y3273D01*
X4865Y3264D01*
X4870Y3254D01*
X4875Y3242D01*
X4881Y3228D01*
X4886Y3212D01*
X4891Y3195D01*
X4896Y3176D01*
X4899Y3156D01*
X4902Y3134D01*
X4903Y3110D01*
X4904Y3084D01*
X4596D01*
Y3084D01*
Y3082D01*
X4597Y3079D01*
Y3075D01*
X4597Y3071D01*
X4598Y3065D01*
X4599Y3060D01*
X4600Y3053D01*
X4604Y3039D01*
X4606Y3032D01*
X4609Y3025D01*
X4612Y3019D01*
X4616Y3012D01*
X4620Y3005D01*
X4625Y2999D01*
X4626Y2999D01*
X4627Y2998D01*
X4628Y2996D01*
X4630Y2994D01*
X4633Y2992D01*
X4637Y2989D01*
X4641Y2987D01*
X4645Y2984D01*
X4650Y2981D01*
X4655Y2979D01*
X4667Y2974D01*
X4674Y2972D01*
X4681Y2970D01*
X4689Y2970D01*
X4696Y2969D01*
X4699D01*
X4702Y2970D01*
X4707Y2970D01*
X4714Y2971D01*
X4721Y2973D01*
X4729Y2976D01*
X4737Y2979D01*
X4745Y2984D01*
X4745D01*
X4746Y2985D01*
X4748Y2988D01*
X4752Y2991D01*
X4756Y2997D01*
X4761Y3004D01*
X4766Y3013D01*
X4771Y3023D01*
X4775Y3035D01*
X4897Y3015D01*
X4897Y3014D01*
X4896Y3012D01*
X4895Y3008D01*
X4892Y3004D01*
X4890Y2998D01*
X4887Y2992D01*
X4883Y2984D01*
X4879Y2977D01*
X4874Y2969D01*
X4868Y2960D01*
X4862Y2951D01*
X4855Y2943D01*
X4848Y2935D01*
X4840Y2927D01*
X4831Y2919D01*
X4822Y2912D01*
X4822Y2912D01*
X4820Y2911D01*
X4817Y2909D01*
X4813Y2907D01*
X4808Y2904D01*
X4802Y2901D01*
X4795Y2898D01*
X4787Y2895D01*
X4778Y2892D01*
X4769Y2889D01*
X4758Y2885D01*
X4747Y2883D01*
X4735Y2881D01*
X4722Y2879D01*
X4709Y2878D01*
X4695Y2878D01*
X4690D01*
X4687Y2878D01*
X4684D01*
X4680Y2878D01*
X4675Y2879D01*
X4665Y2880D01*
X4654Y2882D01*
X4641Y2884D01*
X4627Y2887D01*
X4613Y2891D01*
X4598Y2897D01*
X4583Y2903D01*
X4568Y2911D01*
X4554Y2920D01*
X4541Y2930D01*
X4528Y2942D01*
X4516Y2956D01*
X4516Y2957D01*
X4514Y2959D01*
X4512Y2963D01*
X4509Y2968D01*
X4506Y2974D01*
X4502Y2981D01*
X4498Y2990D01*
X4494Y3000D01*
X4489Y3011D01*
X4485Y3023D01*
X4481Y3036D01*
X4478Y3050D01*
X4475Y3065D01*
X4472Y3081D01*
X4471Y3098D01*
X4470Y3116D01*
Y3117D01*
Y3117D01*
Y3119D01*
Y3121D01*
X4471Y3124D01*
Y3127D01*
Y3131D01*
X4471Y3135D01*
X4472Y3145D01*
X4474Y3156D01*
X4475Y3168D01*
X4478Y3182D01*
X4481Y3196D01*
X4485Y3211D01*
X4490Y3226D01*
X4496Y3241D01*
X4503Y3256D01*
X4511Y3270D01*
X4520Y3283D01*
X4530Y3296D01*
X4531Y3297D01*
X4533Y3299D01*
X4537Y3302D01*
X4541Y3307D01*
X4547Y3312D01*
X4555Y3317D01*
X4563Y3323D01*
X4572Y3329D01*
X4583Y3335D01*
X4594Y3341D01*
X4607Y3347D01*
X4620Y3352D01*
X4635Y3356D01*
X4650Y3359D01*
X4666Y3361D01*
X4683Y3362D01*
X4688D01*
X4690Y3362D01*
D02*
G37*
G36*
X5726D02*
X5732Y3361D01*
X5739Y3360D01*
X5747Y3358D01*
X5757Y3356D01*
X5767Y3353D01*
X5778Y3349D01*
X5790Y3343D01*
X5801Y3337D01*
X5813Y3330D01*
X5825Y3321D01*
X5837Y3311D01*
X5848Y3300D01*
X5859Y3286D01*
Y3352D01*
X5974D01*
Y2935D01*
Y2934D01*
Y2932D01*
Y2927D01*
Y2922D01*
X5973Y2915D01*
X5973Y2908D01*
Y2899D01*
X5972Y2890D01*
X5971Y2880D01*
X5970Y2870D01*
X5968Y2849D01*
X5966Y2840D01*
X5964Y2830D01*
X5962Y2821D01*
X5960Y2813D01*
Y2813D01*
X5959Y2811D01*
X5958Y2810D01*
X5958Y2807D01*
X5956Y2803D01*
X5954Y2799D01*
X5950Y2790D01*
X5945Y2780D01*
X5938Y2769D01*
X5931Y2759D01*
X5922Y2749D01*
X5922Y2749D01*
X5921Y2749D01*
X5920Y2747D01*
X5917Y2746D01*
X5915Y2744D01*
X5912Y2742D01*
X5909Y2739D01*
X5904Y2737D01*
X5900Y2733D01*
X5895Y2731D01*
X5884Y2724D01*
X5871Y2718D01*
X5856Y2713D01*
X5856D01*
X5854Y2713D01*
X5852Y2712D01*
X5849Y2712D01*
X5845Y2710D01*
X5840Y2709D01*
X5835Y2708D01*
X5828Y2707D01*
X5821Y2706D01*
X5813Y2704D01*
X5805Y2703D01*
X5796Y2702D01*
X5786Y2701D01*
X5775Y2700D01*
X5765Y2700D01*
X5745D01*
X5742Y2700D01*
X5734D01*
X5725Y2701D01*
X5713Y2702D01*
X5701Y2703D01*
X5688Y2705D01*
X5675Y2707D01*
X5661Y2710D01*
X5646Y2713D01*
X5633Y2717D01*
X5620Y2722D01*
X5607Y2727D01*
X5596Y2734D01*
X5586Y2741D01*
X5585Y2741D01*
X5584Y2743D01*
X5581Y2745D01*
X5578Y2748D01*
X5574Y2752D01*
X5570Y2757D01*
X5566Y2762D01*
X5561Y2769D01*
X5557Y2776D01*
X5553Y2784D01*
X5548Y2792D01*
X5545Y2801D01*
X5542Y2811D01*
X5539Y2821D01*
X5537Y2832D01*
X5537Y2843D01*
Y2844D01*
Y2845D01*
Y2846D01*
Y2847D01*
Y2852D01*
X5537Y2858D01*
X5677Y2841D01*
Y2841D01*
Y2840D01*
X5678Y2837D01*
X5679Y2833D01*
X5681Y2828D01*
X5683Y2822D01*
X5686Y2816D01*
X5689Y2811D01*
X5694Y2807D01*
X5695Y2807D01*
X5697Y2805D01*
X5701Y2803D01*
X5707Y2801D01*
X5714Y2798D01*
X5719Y2797D01*
X5724Y2796D01*
X5730Y2795D01*
X5735Y2794D01*
X5742Y2794D01*
X5753D01*
X5756Y2794D01*
X5761D01*
X5765Y2795D01*
X5770Y2795D01*
X5776Y2796D01*
X5787Y2798D01*
X5799Y2800D01*
X5811Y2804D01*
X5816Y2806D01*
X5821Y2809D01*
X5822Y2809D01*
X5824Y2810D01*
X5826Y2813D01*
X5830Y2816D01*
X5834Y2821D01*
X5838Y2826D01*
X5842Y2832D01*
X5845Y2840D01*
X5846Y2841D01*
X5846Y2843D01*
X5847Y2847D01*
X5848Y2849D01*
X5848Y2853D01*
X5849Y2856D01*
X5849Y2860D01*
X5850Y2865D01*
X5850Y2870D01*
X5851Y2875D01*
Y2882D01*
X5851Y2888D01*
Y2896D01*
X5852Y2964D01*
X5851Y2963D01*
X5849Y2960D01*
X5846Y2957D01*
X5842Y2952D01*
X5836Y2946D01*
X5830Y2939D01*
X5822Y2933D01*
X5813Y2926D01*
X5804Y2919D01*
X5793Y2912D01*
X5782Y2906D01*
X5769Y2900D01*
X5756Y2895D01*
X5742Y2891D01*
X5727Y2889D01*
X5712Y2888D01*
X5708D01*
X5703Y2889D01*
X5697Y2890D01*
X5689Y2890D01*
X5680Y2892D01*
X5670Y2895D01*
X5658Y2898D01*
X5647Y2902D01*
X5635Y2908D01*
X5623Y2914D01*
X5610Y2921D01*
X5598Y2930D01*
X5586Y2941D01*
X5575Y2953D01*
X5564Y2967D01*
X5564Y2968D01*
X5562Y2970D01*
X5560Y2973D01*
X5558Y2978D01*
X5554Y2984D01*
X5551Y2991D01*
X5547Y3000D01*
X5543Y3010D01*
X5539Y3020D01*
X5535Y3032D01*
X5531Y3045D01*
X5528Y3059D01*
X5526Y3073D01*
X5523Y3089D01*
X5522Y3105D01*
X5522Y3122D01*
Y3123D01*
Y3123D01*
Y3125D01*
Y3127D01*
Y3130D01*
X5522Y3133D01*
Y3137D01*
X5523Y3141D01*
X5523Y3151D01*
X5524Y3162D01*
X5526Y3175D01*
X5529Y3188D01*
X5532Y3202D01*
X5536Y3217D01*
X5540Y3232D01*
X5545Y3246D01*
X5552Y3261D01*
X5559Y3275D01*
X5568Y3288D01*
X5578Y3300D01*
X5578Y3301D01*
X5580Y3303D01*
X5583Y3306D01*
X5588Y3310D01*
X5593Y3314D01*
X5600Y3319D01*
X5607Y3325D01*
X5616Y3331D01*
X5626Y3337D01*
X5636Y3343D01*
X5648Y3348D01*
X5660Y3352D01*
X5673Y3356D01*
X5687Y3359D01*
X5702Y3362D01*
X5717Y3362D01*
X5721D01*
X5726Y3362D01*
D02*
G37*
G36*
X-463Y-4538D02*
X-459D01*
X-454Y-4538D01*
X-448Y-4539D01*
X-442Y-4540D01*
X-428Y-4542D01*
X-413Y-4546D01*
X-399Y-4551D01*
X-392Y-4554D01*
X-385Y-4558D01*
X-385D01*
X-384Y-4559D01*
X-382Y-4560D01*
X-379Y-4562D01*
X-376Y-4564D01*
X-373Y-4567D01*
X-370Y-4570D01*
X-365Y-4573D01*
X-361Y-4577D01*
X-357Y-4582D01*
X-352Y-4587D01*
X-348Y-4593D01*
X-344Y-4598D01*
X-340Y-4605D01*
X-333Y-4619D01*
Y-4619D01*
X-332Y-4620D01*
X-331Y-4622D01*
X-331Y-4625D01*
X-329Y-4628D01*
X-328Y-4632D01*
X-327Y-4637D01*
X-326Y-4642D01*
X-325Y-4649D01*
X-324Y-4655D01*
X-322Y-4663D01*
X-321Y-4672D01*
X-321Y-4681D01*
X-320Y-4692D01*
X-320Y-4703D01*
Y-4715D01*
Y-5011D01*
X-442D01*
Y-4747D01*
Y-4746D01*
Y-4743D01*
Y-4740D01*
Y-4735D01*
X-443Y-4730D01*
Y-4724D01*
X-443Y-4717D01*
X-443Y-4710D01*
X-445Y-4694D01*
X-448Y-4680D01*
X-449Y-4673D01*
X-451Y-4667D01*
X-453Y-4661D01*
X-455Y-4657D01*
Y-4657D01*
X-456Y-4656D01*
X-457Y-4655D01*
X-458Y-4653D01*
X-462Y-4649D01*
X-468Y-4644D01*
X-475Y-4639D01*
X-484Y-4635D01*
X-489Y-4633D01*
X-495Y-4632D01*
X-501Y-4631D01*
X-507Y-4631D01*
X-511D01*
X-517Y-4632D01*
X-523Y-4633D01*
X-530Y-4635D01*
X-539Y-4637D01*
X-547Y-4642D01*
X-556Y-4647D01*
X-556D01*
X-557Y-4648D01*
X-560Y-4649D01*
X-564Y-4653D01*
X-568Y-4658D01*
X-574Y-4665D01*
X-579Y-4673D01*
X-584Y-4682D01*
X-589Y-4693D01*
Y-4693D01*
X-589Y-4694D01*
X-590Y-4696D01*
X-590Y-4698D01*
X-591Y-4702D01*
X-592Y-4706D01*
X-593Y-4711D01*
X-593Y-4717D01*
X-594Y-4723D01*
X-595Y-4730D01*
X-596Y-4737D01*
X-597Y-4746D01*
X-597Y-4756D01*
X-598Y-4766D01*
X-598Y-4777D01*
Y-4789D01*
Y-5011D01*
X-721D01*
Y-4757D01*
Y-4756D01*
Y-4754D01*
Y-4751D01*
Y-4746D01*
Y-4741D01*
X-721Y-4735D01*
Y-4728D01*
X-722Y-4721D01*
X-723Y-4706D01*
X-724Y-4692D01*
X-725Y-4686D01*
X-725Y-4680D01*
X-726Y-4674D01*
X-728Y-4670D01*
Y-4670D01*
X-728Y-4669D01*
X-729Y-4667D01*
X-731Y-4663D01*
X-733Y-4659D01*
X-736Y-4654D01*
X-739Y-4649D01*
X-743Y-4645D01*
X-748Y-4641D01*
X-749Y-4640D01*
X-750Y-4639D01*
X-754Y-4637D01*
X-758Y-4636D01*
X-763Y-4634D01*
X-769Y-4632D01*
X-777Y-4631D01*
X-785Y-4631D01*
X-790D01*
X-793Y-4631D01*
X-795Y-4632D01*
X-802Y-4633D01*
X-810Y-4635D01*
X-819Y-4637D01*
X-828Y-4642D01*
X-836Y-4647D01*
X-837D01*
X-837Y-4648D01*
X-840Y-4649D01*
X-844Y-4653D01*
X-849Y-4658D01*
X-854Y-4664D01*
X-860Y-4672D01*
X-865Y-4680D01*
X-869Y-4691D01*
Y-4691D01*
X-869Y-4692D01*
X-870Y-4694D01*
X-870Y-4696D01*
X-871Y-4699D01*
X-872Y-4703D01*
X-873Y-4708D01*
X-873Y-4713D01*
X-874Y-4720D01*
X-875Y-4727D01*
X-876Y-4735D01*
X-877Y-4743D01*
X-878Y-4753D01*
X-878Y-4763D01*
X-878Y-4774D01*
Y-4786D01*
Y-5011D01*
X-1001D01*
Y-4547D01*
X-888D01*
Y-4611D01*
X-887Y-4610D01*
X-885Y-4607D01*
X-882Y-4604D01*
X-878Y-4599D01*
X-872Y-4594D01*
X-865Y-4588D01*
X-857Y-4581D01*
X-848Y-4574D01*
X-837Y-4567D01*
X-826Y-4560D01*
X-815Y-4554D01*
X-802Y-4549D01*
X-788Y-4544D01*
X-774Y-4540D01*
X-759Y-4538D01*
X-744Y-4537D01*
X-740D01*
X-737Y-4538D01*
X-733D01*
X-728Y-4538D01*
X-723Y-4539D01*
X-718Y-4539D01*
X-706Y-4542D01*
X-693Y-4545D01*
X-680Y-4550D01*
X-667Y-4556D01*
X-666D01*
X-665Y-4557D01*
X-664Y-4557D01*
X-661Y-4559D01*
X-658Y-4561D01*
X-655Y-4563D01*
X-648Y-4569D01*
X-639Y-4577D01*
X-630Y-4587D01*
X-621Y-4598D01*
X-613Y-4611D01*
X-613Y-4611D01*
X-612Y-4609D01*
X-610Y-4607D01*
X-608Y-4605D01*
X-605Y-4602D01*
X-602Y-4599D01*
X-598Y-4594D01*
X-593Y-4590D01*
X-584Y-4582D01*
X-572Y-4572D01*
X-560Y-4563D01*
X-548Y-4556D01*
X-547D01*
X-546Y-4555D01*
X-544Y-4554D01*
X-541Y-4553D01*
X-538Y-4551D01*
X-534Y-4550D01*
X-529Y-4548D01*
X-525Y-4546D01*
X-519Y-4545D01*
X-513Y-4543D01*
X-500Y-4540D01*
X-486Y-4538D01*
X-472Y-4537D01*
X-467D01*
X-463Y-4538D01*
D02*
G37*
G36*
X-1615D02*
X-1612Y-4538D01*
X-1608Y-4539D01*
X-1602Y-4539D01*
X-1597Y-4540D01*
X-1584Y-4543D01*
X-1571Y-4547D01*
X-1564Y-4550D01*
X-1556Y-4553D01*
X-1549Y-4557D01*
X-1541Y-4561D01*
X-1580Y-4668D01*
X-1580Y-4667D01*
X-1581Y-4667D01*
X-1583Y-4666D01*
X-1585Y-4664D01*
X-1588Y-4663D01*
X-1591Y-4661D01*
X-1599Y-4657D01*
X-1608Y-4654D01*
X-1617Y-4650D01*
X-1627Y-4648D01*
X-1632Y-4647D01*
X-1642D01*
X-1647Y-4648D01*
X-1653Y-4649D01*
X-1660Y-4651D01*
X-1667Y-4653D01*
X-1675Y-4657D01*
X-1681Y-4661D01*
X-1682Y-4662D01*
X-1684Y-4664D01*
X-1687Y-4668D01*
X-1692Y-4673D01*
X-1696Y-4680D01*
X-1698Y-4685D01*
X-1700Y-4689D01*
X-1703Y-4694D01*
X-1705Y-4700D01*
X-1707Y-4706D01*
X-1709Y-4713D01*
Y-4713D01*
X-1710Y-4715D01*
X-1710Y-4717D01*
X-1711Y-4720D01*
X-1712Y-4725D01*
X-1712Y-4731D01*
X-1713Y-4738D01*
X-1714Y-4746D01*
X-1715Y-4756D01*
X-1716Y-4767D01*
X-1717Y-4780D01*
X-1718Y-4794D01*
X-1718Y-4810D01*
X-1719Y-4827D01*
X-1719Y-4847D01*
Y-4857D01*
Y-4868D01*
Y-5011D01*
X-1842D01*
Y-4547D01*
X-1728D01*
Y-4613D01*
X-1728Y-4613D01*
X-1727Y-4612D01*
X-1725Y-4609D01*
X-1723Y-4606D01*
X-1721Y-4602D01*
X-1718Y-4598D01*
X-1711Y-4588D01*
X-1703Y-4578D01*
X-1694Y-4568D01*
X-1689Y-4563D01*
X-1685Y-4559D01*
X-1680Y-4555D01*
X-1676Y-4552D01*
X-1675D01*
X-1675Y-4551D01*
X-1674Y-4551D01*
X-1672Y-4550D01*
X-1667Y-4547D01*
X-1660Y-4545D01*
X-1652Y-4542D01*
X-1644Y-4539D01*
X-1633Y-4538D01*
X-1623Y-4537D01*
X-1619D01*
X-1615Y-4538D01*
D02*
G37*
G36*
X-2379Y-4767D02*
X-2207Y-5011D01*
X-2357D01*
X-2452Y-4868D01*
X-2547Y-5011D01*
X-2690D01*
X-2523Y-4772D01*
X-2683Y-4547D01*
X-2533D01*
X-2452Y-4675D01*
X-2365Y-4547D01*
X-2221D01*
X-2379Y-4767D01*
D02*
G37*
G36*
X-2752Y-4479D02*
X-3097D01*
Y-4621D01*
X-2776D01*
Y-4729D01*
X-3097D01*
Y-4903D01*
X-2740D01*
Y-5011D01*
X-3226D01*
Y-4371D01*
X-2752D01*
Y-4479D01*
D02*
G37*
G36*
X-14Y-4538D02*
X-11D01*
X-3Y-4538D01*
X5Y-4539D01*
X15Y-4541D01*
X27Y-4543D01*
X39Y-4545D01*
X51Y-4549D01*
X65Y-4554D01*
X78Y-4559D01*
X92Y-4566D01*
X105Y-4574D01*
X118Y-4583D01*
X131Y-4594D01*
X142Y-4606D01*
X143Y-4606D01*
X145Y-4609D01*
X148Y-4613D01*
X151Y-4619D01*
X156Y-4626D01*
X161Y-4635D01*
X166Y-4645D01*
X172Y-4657D01*
X177Y-4671D01*
X183Y-4687D01*
X188Y-4704D01*
X192Y-4723D01*
X195Y-4743D01*
X198Y-4766D01*
X200Y-4790D01*
X200Y-4815D01*
X-107D01*
Y-4815D01*
Y-4817D01*
X-107Y-4820D01*
Y-4824D01*
X-106Y-4828D01*
X-106Y-4834D01*
X-105Y-4839D01*
X-103Y-4846D01*
X-100Y-4860D01*
X-98Y-4867D01*
X-95Y-4874D01*
X-91Y-4881D01*
X-88Y-4888D01*
X-83Y-4894D01*
X-78Y-4900D01*
X-78Y-4900D01*
X-77Y-4901D01*
X-76Y-4903D01*
X-73Y-4905D01*
X-70Y-4907D01*
X-67Y-4910D01*
X-63Y-4912D01*
X-58Y-4915D01*
X-54Y-4918D01*
X-48Y-4920D01*
X-36Y-4925D01*
X-29Y-4927D01*
X-22Y-4929D01*
X-15Y-4930D01*
X-7Y-4930D01*
X-4D01*
X-2Y-4930D01*
X3Y-4929D01*
X10Y-4928D01*
X17Y-4926D01*
X26Y-4924D01*
X34Y-4920D01*
X41Y-4915D01*
X42D01*
X42Y-4914D01*
X45Y-4912D01*
X48Y-4908D01*
X53Y-4902D01*
X58Y-4895D01*
X63Y-4887D01*
X67Y-4876D01*
X71Y-4864D01*
X194Y-4884D01*
X193Y-4885D01*
X193Y-4887D01*
X191Y-4891D01*
X189Y-4895D01*
X187Y-4901D01*
X183Y-4907D01*
X180Y-4915D01*
X175Y-4922D01*
X170Y-4931D01*
X165Y-4939D01*
X158Y-4948D01*
X152Y-4956D01*
X145Y-4964D01*
X137Y-4973D01*
X128Y-4980D01*
X119Y-4987D01*
X118Y-4987D01*
X116Y-4988D01*
X114Y-4990D01*
X109Y-4992D01*
X104Y-4995D01*
X99Y-4998D01*
X91Y-5001D01*
X84Y-5004D01*
X75Y-5007D01*
X65Y-5011D01*
X55Y-5014D01*
X44Y-5016D01*
X32Y-5018D01*
X19Y-5020D01*
X5Y-5021D01*
X-8Y-5022D01*
X-14D01*
X-17Y-5021D01*
X-20D01*
X-24Y-5021D01*
X-28Y-5020D01*
X-39Y-5019D01*
X-50Y-5017D01*
X-63Y-5015D01*
X-76Y-5012D01*
X-91Y-5008D01*
X-106Y-5002D01*
X-120Y-4996D01*
X-135Y-4988D01*
X-149Y-4980D01*
X-163Y-4969D01*
X-176Y-4957D01*
X-187Y-4943D01*
X-188Y-4942D01*
X-189Y-4940D01*
X-192Y-4937D01*
X-194Y-4931D01*
X-198Y-4925D01*
X-202Y-4918D01*
X-206Y-4909D01*
X-210Y-4899D01*
X-215Y-4888D01*
X-219Y-4876D01*
X-223Y-4863D01*
X-226Y-4849D01*
X-229Y-4834D01*
X-231Y-4818D01*
X-233Y-4801D01*
X-233Y-4783D01*
Y-4783D01*
Y-4782D01*
Y-4780D01*
Y-4778D01*
X-233Y-4775D01*
Y-4772D01*
Y-4768D01*
X-232Y-4764D01*
X-231Y-4754D01*
X-230Y-4743D01*
X-228Y-4731D01*
X-226Y-4717D01*
X-223Y-4703D01*
X-218Y-4688D01*
X-214Y-4674D01*
X-208Y-4658D01*
X-201Y-4643D01*
X-193Y-4629D01*
X-184Y-4616D01*
X-173Y-4603D01*
X-172Y-4602D01*
X-170Y-4600D01*
X-167Y-4597D01*
X-162Y-4593D01*
X-156Y-4588D01*
X-149Y-4582D01*
X-141Y-4576D01*
X-131Y-4570D01*
X-121Y-4564D01*
X-109Y-4558D01*
X-97Y-4552D01*
X-83Y-4547D01*
X-69Y-4543D01*
X-54Y-4540D01*
X-38Y-4538D01*
X-21Y-4537D01*
X-16D01*
X-14Y-4538D01*
D02*
G37*
G36*
X-1305D02*
X-1302D01*
X-1295Y-4538D01*
X-1286Y-4539D01*
X-1277Y-4541D01*
X-1265Y-4543D01*
X-1253Y-4545D01*
X-1240Y-4549D01*
X-1227Y-4554D01*
X-1214Y-4559D01*
X-1200Y-4566D01*
X-1186Y-4574D01*
X-1173Y-4583D01*
X-1161Y-4594D01*
X-1149Y-4606D01*
X-1149Y-4606D01*
X-1147Y-4609D01*
X-1144Y-4613D01*
X-1140Y-4619D01*
X-1136Y-4626D01*
X-1130Y-4635D01*
X-1125Y-4645D01*
X-1120Y-4657D01*
X-1114Y-4671D01*
X-1109Y-4687D01*
X-1104Y-4704D01*
X-1099Y-4723D01*
X-1096Y-4743D01*
X-1093Y-4766D01*
X-1092Y-4790D01*
X-1092Y-4815D01*
X-1399D01*
Y-4815D01*
Y-4817D01*
X-1399Y-4820D01*
Y-4824D01*
X-1398Y-4828D01*
X-1397Y-4834D01*
X-1396Y-4839D01*
X-1395Y-4846D01*
X-1392Y-4860D01*
X-1389Y-4867D01*
X-1387Y-4874D01*
X-1383Y-4881D01*
X-1379Y-4888D01*
X-1375Y-4894D01*
X-1370Y-4900D01*
X-1369Y-4900D01*
X-1369Y-4901D01*
X-1367Y-4903D01*
X-1365Y-4905D01*
X-1362Y-4907D01*
X-1358Y-4910D01*
X-1355Y-4912D01*
X-1350Y-4915D01*
X-1345Y-4918D01*
X-1340Y-4920D01*
X-1328Y-4925D01*
X-1321Y-4927D01*
X-1314Y-4929D01*
X-1307Y-4930D01*
X-1299Y-4930D01*
X-1296D01*
X-1294Y-4930D01*
X-1289Y-4929D01*
X-1282Y-4928D01*
X-1274Y-4926D01*
X-1266Y-4924D01*
X-1258Y-4920D01*
X-1250Y-4915D01*
X-1250D01*
X-1249Y-4914D01*
X-1247Y-4912D01*
X-1243Y-4908D01*
X-1239Y-4902D01*
X-1234Y-4895D01*
X-1229Y-4887D01*
X-1224Y-4876D01*
X-1220Y-4864D01*
X-1098Y-4884D01*
X-1099Y-4885D01*
X-1099Y-4887D01*
X-1100Y-4891D01*
X-1103Y-4895D01*
X-1105Y-4901D01*
X-1108Y-4907D01*
X-1112Y-4915D01*
X-1117Y-4922D01*
X-1121Y-4931D01*
X-1127Y-4939D01*
X-1133Y-4948D01*
X-1140Y-4956D01*
X-1147Y-4964D01*
X-1155Y-4973D01*
X-1164Y-4980D01*
X-1173Y-4987D01*
X-1173Y-4987D01*
X-1175Y-4988D01*
X-1178Y-4990D01*
X-1182Y-4992D01*
X-1187Y-4995D01*
X-1193Y-4998D01*
X-1200Y-5001D01*
X-1208Y-5004D01*
X-1217Y-5007D01*
X-1226Y-5011D01*
X-1237Y-5014D01*
X-1248Y-5016D01*
X-1260Y-5018D01*
X-1273Y-5020D01*
X-1286Y-5021D01*
X-1300Y-5022D01*
X-1305D01*
X-1308Y-5021D01*
X-1312D01*
X-1315Y-5021D01*
X-1320Y-5020D01*
X-1330Y-5019D01*
X-1341Y-5017D01*
X-1354Y-5015D01*
X-1368Y-5012D01*
X-1382Y-5008D01*
X-1397Y-5002D01*
X-1412Y-4996D01*
X-1427Y-4988D01*
X-1441Y-4980D01*
X-1454Y-4969D01*
X-1467Y-4957D01*
X-1479Y-4943D01*
X-1479Y-4942D01*
X-1481Y-4940D01*
X-1483Y-4937D01*
X-1486Y-4931D01*
X-1490Y-4925D01*
X-1493Y-4918D01*
X-1497Y-4909D01*
X-1502Y-4899D01*
X-1506Y-4888D01*
X-1510Y-4876D01*
X-1514Y-4863D01*
X-1517Y-4849D01*
X-1521Y-4834D01*
X-1523Y-4818D01*
X-1524Y-4801D01*
X-1525Y-4783D01*
Y-4783D01*
Y-4782D01*
Y-4780D01*
Y-4778D01*
X-1524Y-4775D01*
Y-4772D01*
Y-4768D01*
X-1524Y-4764D01*
X-1523Y-4754D01*
X-1522Y-4743D01*
X-1520Y-4731D01*
X-1517Y-4717D01*
X-1514Y-4703D01*
X-1510Y-4688D01*
X-1505Y-4674D01*
X-1499Y-4658D01*
X-1492Y-4643D01*
X-1485Y-4629D01*
X-1475Y-4616D01*
X-1465Y-4603D01*
X-1464Y-4602D01*
X-1462Y-4600D01*
X-1459Y-4597D01*
X-1454Y-4593D01*
X-1448Y-4588D01*
X-1441Y-4582D01*
X-1432Y-4576D01*
X-1423Y-4570D01*
X-1412Y-4564D01*
X-1401Y-4558D01*
X-1388Y-4552D01*
X-1375Y-4547D01*
X-1361Y-4543D01*
X-1345Y-4540D01*
X-1329Y-4538D01*
X-1312Y-4537D01*
X-1308D01*
X-1305Y-4538D01*
D02*
G37*
G36*
X-2006Y-4547D02*
X-1922D01*
Y-4645D01*
X-2006D01*
Y-4832D01*
Y-4833D01*
Y-4834D01*
Y-4837D01*
Y-4841D01*
Y-4845D01*
Y-4851D01*
X-2006Y-4862D01*
Y-4873D01*
X-2005Y-4879D01*
Y-4884D01*
X-2005Y-4889D01*
Y-4893D01*
X-2004Y-4896D01*
X-2004Y-4899D01*
Y-4899D01*
X-2003Y-4900D01*
X-2002Y-4902D01*
X-2001Y-4904D01*
X-2000Y-4907D01*
X-1998Y-4909D01*
X-1996Y-4912D01*
X-1993Y-4914D01*
X-1993Y-4914D01*
X-1992Y-4915D01*
X-1990Y-4916D01*
X-1987Y-4917D01*
X-1984Y-4918D01*
X-1981Y-4919D01*
X-1976Y-4919D01*
X-1972Y-4920D01*
X-1969D01*
X-1965Y-4919D01*
X-1960Y-4919D01*
X-1953Y-4917D01*
X-1944Y-4915D01*
X-1934Y-4912D01*
X-1923Y-4908D01*
X-1912Y-5004D01*
X-1913D01*
X-1914Y-5005D01*
X-1916Y-5005D01*
X-1920Y-5006D01*
X-1924Y-5008D01*
X-1929Y-5009D01*
X-1934Y-5011D01*
X-1940Y-5012D01*
X-1947Y-5014D01*
X-1955Y-5016D01*
X-1963Y-5017D01*
X-1971Y-5019D01*
X-1989Y-5021D01*
X-2009Y-5022D01*
X-2015D01*
X-2018Y-5021D01*
X-2021D01*
X-2029Y-5020D01*
X-2038Y-5019D01*
X-2048Y-5017D01*
X-2059Y-5014D01*
X-2069Y-5011D01*
X-2069D01*
X-2070Y-5010D01*
X-2071Y-5010D01*
X-2073Y-5009D01*
X-2078Y-5006D01*
X-2084Y-5003D01*
X-2090Y-4998D01*
X-2096Y-4994D01*
X-2103Y-4988D01*
X-2108Y-4982D01*
X-2108Y-4981D01*
X-2110Y-4979D01*
X-2112Y-4974D01*
X-2115Y-4969D01*
X-2117Y-4962D01*
X-2120Y-4954D01*
X-2123Y-4944D01*
X-2125Y-4934D01*
Y-4933D01*
Y-4933D01*
X-2125Y-4931D01*
Y-4930D01*
X-2126Y-4927D01*
Y-4924D01*
X-2126Y-4919D01*
X-2127Y-4915D01*
X-2127Y-4910D01*
Y-4903D01*
X-2128Y-4896D01*
X-2128Y-4888D01*
Y-4880D01*
X-2128Y-4870D01*
Y-4859D01*
Y-4847D01*
Y-4645D01*
X-2185D01*
Y-4547D01*
X-2128D01*
Y-4455D01*
X-2006Y-4383D01*
Y-4547D01*
D02*
G37*
G36*
X-893Y-5263D02*
X-1016D01*
Y-5150D01*
X-893D01*
Y-5263D01*
D02*
G37*
G36*
X-1439D02*
X-1562D01*
Y-5150D01*
X-1439D01*
Y-5263D01*
D02*
G37*
G36*
X-1683Y-5789D02*
X-1797D01*
Y-5721D01*
X-1797Y-5722D01*
X-1798Y-5723D01*
X-1799Y-5725D01*
X-1802Y-5728D01*
X-1804Y-5731D01*
X-1808Y-5735D01*
X-1811Y-5739D01*
X-1816Y-5744D01*
X-1826Y-5753D01*
X-1837Y-5763D01*
X-1850Y-5772D01*
X-1857Y-5777D01*
X-1864Y-5781D01*
X-1865D01*
X-1866Y-5782D01*
X-1868Y-5782D01*
X-1871Y-5784D01*
X-1874Y-5785D01*
X-1878Y-5787D01*
X-1883Y-5788D01*
X-1888Y-5790D01*
X-1900Y-5794D01*
X-1913Y-5797D01*
X-1927Y-5799D01*
X-1942Y-5800D01*
X-1945D01*
X-1950Y-5800D01*
X-1955Y-5799D01*
X-1962Y-5798D01*
X-1970Y-5797D01*
X-1979Y-5794D01*
X-1989Y-5792D01*
X-1999Y-5788D01*
X-2010Y-5784D01*
X-2022Y-5779D01*
X-2033Y-5773D01*
X-2045Y-5765D01*
X-2056Y-5757D01*
X-2067Y-5747D01*
X-2079Y-5736D01*
X-2079Y-5735D01*
X-2081Y-5733D01*
X-2084Y-5729D01*
X-2087Y-5724D01*
X-2092Y-5717D01*
X-2097Y-5709D01*
X-2102Y-5700D01*
X-2107Y-5689D01*
X-2112Y-5677D01*
X-2117Y-5664D01*
X-2122Y-5649D01*
X-2127Y-5633D01*
X-2130Y-5616D01*
X-2133Y-5597D01*
X-2135Y-5577D01*
X-2135Y-5556D01*
Y-5556D01*
Y-5555D01*
Y-5554D01*
Y-5551D01*
Y-5549D01*
X-2135Y-5545D01*
Y-5541D01*
X-2135Y-5537D01*
X-2134Y-5527D01*
X-2133Y-5516D01*
X-2131Y-5503D01*
X-2128Y-5490D01*
X-2126Y-5475D01*
X-2122Y-5461D01*
X-2117Y-5446D01*
X-2112Y-5431D01*
X-2106Y-5416D01*
X-2098Y-5402D01*
X-2090Y-5389D01*
X-2080Y-5377D01*
X-2080Y-5376D01*
X-2078Y-5374D01*
X-2075Y-5371D01*
X-2070Y-5367D01*
X-2065Y-5363D01*
X-2058Y-5358D01*
X-2051Y-5352D01*
X-2042Y-5346D01*
X-2032Y-5340D01*
X-2022Y-5335D01*
X-2010Y-5330D01*
X-1998Y-5325D01*
X-1984Y-5321D01*
X-1970Y-5318D01*
X-1956Y-5316D01*
X-1940Y-5316D01*
X-1937D01*
X-1933Y-5316D01*
X-1927Y-5316D01*
X-1920Y-5317D01*
X-1912Y-5319D01*
X-1903Y-5321D01*
X-1894Y-5323D01*
X-1883Y-5327D01*
X-1873Y-5331D01*
X-1862Y-5336D01*
X-1850Y-5343D01*
X-1839Y-5350D01*
X-1828Y-5359D01*
X-1816Y-5369D01*
X-1805Y-5380D01*
Y-5150D01*
X-1683D01*
Y-5789D01*
D02*
G37*
G36*
X54Y-5316D02*
X59Y-5316D01*
X63Y-5317D01*
X68Y-5317D01*
X80Y-5319D01*
X92Y-5322D01*
X105Y-5325D01*
X118Y-5330D01*
X118D01*
X119Y-5331D01*
X121Y-5332D01*
X123Y-5333D01*
X126Y-5334D01*
X129Y-5336D01*
X137Y-5340D01*
X145Y-5346D01*
X153Y-5353D01*
X162Y-5359D01*
X169Y-5368D01*
Y-5368D01*
X169Y-5369D01*
X170Y-5370D01*
X171Y-5372D01*
X175Y-5377D01*
X178Y-5383D01*
X182Y-5390D01*
X186Y-5399D01*
X190Y-5408D01*
X193Y-5419D01*
Y-5420D01*
X194Y-5420D01*
Y-5422D01*
X194Y-5424D01*
X195Y-5427D01*
X195Y-5431D01*
X196Y-5435D01*
X197Y-5440D01*
X197Y-5446D01*
X198Y-5452D01*
X199Y-5459D01*
X199Y-5466D01*
X200Y-5474D01*
Y-5483D01*
X200Y-5492D01*
Y-5502D01*
Y-5789D01*
X78D01*
Y-5553D01*
Y-5552D01*
Y-5550D01*
Y-5546D01*
Y-5541D01*
X77Y-5535D01*
Y-5528D01*
Y-5521D01*
X77Y-5513D01*
X76Y-5497D01*
X75Y-5488D01*
X74Y-5481D01*
X73Y-5473D01*
X72Y-5467D01*
X71Y-5461D01*
X69Y-5456D01*
Y-5456D01*
X69Y-5455D01*
X68Y-5452D01*
X66Y-5448D01*
X63Y-5444D01*
X59Y-5438D01*
X55Y-5432D01*
X50Y-5427D01*
X44Y-5422D01*
X43Y-5421D01*
X41Y-5420D01*
X37Y-5418D01*
X32Y-5415D01*
X26Y-5414D01*
X18Y-5411D01*
X10Y-5410D01*
X1Y-5409D01*
X-2D01*
X-4Y-5410D01*
X-7D01*
X-10Y-5410D01*
X-18Y-5412D01*
X-27Y-5414D01*
X-37Y-5417D01*
X-47Y-5421D01*
X-57Y-5427D01*
X-57D01*
X-57Y-5428D01*
X-59Y-5429D01*
X-61Y-5430D01*
X-65Y-5434D01*
X-70Y-5439D01*
X-76Y-5446D01*
X-82Y-5454D01*
X-87Y-5463D01*
X-91Y-5474D01*
Y-5474D01*
X-92Y-5475D01*
X-92Y-5477D01*
X-93Y-5479D01*
X-94Y-5482D01*
X-94Y-5487D01*
X-95Y-5492D01*
X-96Y-5498D01*
X-97Y-5505D01*
X-98Y-5512D01*
X-98Y-5521D01*
X-99Y-5530D01*
X-100Y-5541D01*
X-100Y-5553D01*
X-100Y-5566D01*
Y-5580D01*
Y-5789D01*
X-223D01*
Y-5326D01*
X-109D01*
Y-5394D01*
X-108Y-5393D01*
X-106Y-5391D01*
X-103Y-5387D01*
X-98Y-5382D01*
X-92Y-5376D01*
X-85Y-5369D01*
X-77Y-5362D01*
X-67Y-5355D01*
X-57Y-5347D01*
X-45Y-5340D01*
X-33Y-5334D01*
X-19Y-5328D01*
X-5Y-5323D01*
X10Y-5319D01*
X27Y-5316D01*
X44Y-5316D01*
X51D01*
X54Y-5316D01*
D02*
G37*
G36*
X-893Y-5789D02*
X-1016D01*
Y-5326D01*
X-893D01*
Y-5789D01*
D02*
G37*
G36*
X-1439D02*
X-1562D01*
Y-5326D01*
X-1439D01*
Y-5789D01*
D02*
G37*
G36*
X-2228Y-5258D02*
X-2574D01*
Y-5400D01*
X-2252D01*
Y-5508D01*
X-2574D01*
Y-5681D01*
X-2216D01*
Y-5789D01*
X-2703D01*
Y-5150D01*
X-2228D01*
Y-5258D01*
D02*
G37*
G36*
X-550Y-5316D02*
X-548D01*
X-540Y-5316D01*
X-531Y-5317D01*
X-521Y-5319D01*
X-509Y-5321D01*
X-497Y-5324D01*
X-483Y-5328D01*
X-469Y-5332D01*
X-455Y-5338D01*
X-440Y-5344D01*
X-426Y-5352D01*
X-412Y-5361D01*
X-398Y-5372D01*
X-385Y-5384D01*
X-384Y-5385D01*
X-382Y-5387D01*
X-379Y-5391D01*
X-375Y-5396D01*
X-370Y-5403D01*
X-364Y-5411D01*
X-358Y-5420D01*
X-352Y-5431D01*
X-345Y-5443D01*
X-339Y-5456D01*
X-333Y-5470D01*
X-328Y-5486D01*
X-324Y-5502D01*
X-321Y-5519D01*
X-319Y-5538D01*
X-318Y-5557D01*
Y-5557D01*
Y-5558D01*
Y-5560D01*
Y-5561D01*
X-318Y-5564D01*
Y-5567D01*
X-319Y-5574D01*
X-320Y-5583D01*
X-321Y-5594D01*
X-323Y-5605D01*
X-326Y-5618D01*
X-330Y-5631D01*
X-334Y-5646D01*
X-340Y-5660D01*
X-346Y-5675D01*
X-354Y-5689D01*
X-363Y-5704D01*
X-374Y-5718D01*
X-386Y-5731D01*
X-387Y-5732D01*
X-389Y-5734D01*
X-393Y-5738D01*
X-398Y-5742D01*
X-405Y-5747D01*
X-413Y-5753D01*
X-422Y-5759D01*
X-432Y-5765D01*
X-444Y-5772D01*
X-457Y-5778D01*
X-471Y-5784D01*
X-486Y-5789D01*
X-503Y-5794D01*
X-520Y-5797D01*
X-538Y-5799D01*
X-557Y-5800D01*
X-563D01*
X-567Y-5800D01*
X-573Y-5799D01*
X-580Y-5799D01*
X-588Y-5798D01*
X-596Y-5796D01*
X-605Y-5795D01*
X-615Y-5793D01*
X-625Y-5791D01*
X-635Y-5788D01*
X-646Y-5785D01*
X-657Y-5781D01*
X-667Y-5776D01*
X-678Y-5771D01*
X-679Y-5771D01*
X-681Y-5770D01*
X-684Y-5768D01*
X-688Y-5766D01*
X-693Y-5763D01*
X-698Y-5759D01*
X-704Y-5755D01*
X-711Y-5750D01*
X-718Y-5745D01*
X-725Y-5738D01*
X-732Y-5731D01*
X-740Y-5724D01*
X-747Y-5715D01*
X-754Y-5707D01*
X-760Y-5697D01*
X-766Y-5687D01*
X-767Y-5687D01*
X-768Y-5684D01*
X-769Y-5682D01*
X-771Y-5677D01*
X-773Y-5672D01*
X-776Y-5665D01*
X-778Y-5658D01*
X-781Y-5649D01*
X-784Y-5640D01*
X-787Y-5629D01*
X-789Y-5618D01*
X-792Y-5606D01*
X-793Y-5593D01*
X-795Y-5580D01*
X-796Y-5566D01*
X-796Y-5551D01*
Y-5550D01*
Y-5549D01*
Y-5545D01*
X-796Y-5541D01*
X-795Y-5536D01*
X-795Y-5529D01*
X-794Y-5522D01*
X-793Y-5514D01*
X-791Y-5505D01*
X-789Y-5496D01*
X-787Y-5486D01*
X-784Y-5476D01*
X-780Y-5465D01*
X-776Y-5455D01*
X-771Y-5444D01*
X-766Y-5433D01*
X-766Y-5433D01*
X-765Y-5431D01*
X-763Y-5428D01*
X-761Y-5424D01*
X-757Y-5419D01*
X-754Y-5414D01*
X-750Y-5408D01*
X-744Y-5401D01*
X-738Y-5394D01*
X-732Y-5387D01*
X-725Y-5380D01*
X-718Y-5372D01*
X-709Y-5365D01*
X-701Y-5359D01*
X-691Y-5352D01*
X-681Y-5346D01*
X-681Y-5346D01*
X-679Y-5345D01*
X-676Y-5343D01*
X-671Y-5341D01*
X-666Y-5339D01*
X-660Y-5336D01*
X-653Y-5334D01*
X-645Y-5331D01*
X-636Y-5328D01*
X-627Y-5325D01*
X-616Y-5322D01*
X-606Y-5320D01*
X-594Y-5318D01*
X-583Y-5317D01*
X-570Y-5316D01*
X-558Y-5316D01*
X-553D01*
X-550Y-5316D01*
D02*
G37*
G36*
X-1185Y-5326D02*
X-1102D01*
Y-5423D01*
X-1185D01*
Y-5610D01*
Y-5611D01*
Y-5613D01*
Y-5616D01*
Y-5620D01*
Y-5624D01*
Y-5629D01*
X-1185Y-5640D01*
Y-5652D01*
X-1185Y-5657D01*
Y-5663D01*
X-1184Y-5667D01*
Y-5671D01*
X-1184Y-5675D01*
X-1183Y-5677D01*
Y-5677D01*
X-1183Y-5678D01*
X-1182Y-5680D01*
X-1181Y-5683D01*
X-1179Y-5685D01*
X-1178Y-5687D01*
X-1175Y-5690D01*
X-1173Y-5692D01*
X-1172Y-5693D01*
X-1171Y-5693D01*
X-1169Y-5694D01*
X-1166Y-5695D01*
X-1164Y-5696D01*
X-1160Y-5697D01*
X-1156Y-5698D01*
X-1152Y-5698D01*
X-1148D01*
X-1145Y-5698D01*
X-1139Y-5697D01*
X-1132Y-5696D01*
X-1124Y-5693D01*
X-1114Y-5690D01*
X-1102Y-5687D01*
X-1092Y-5782D01*
X-1092D01*
X-1093Y-5783D01*
X-1096Y-5784D01*
X-1099Y-5785D01*
X-1103Y-5786D01*
X-1108Y-5788D01*
X-1114Y-5789D01*
X-1120Y-5791D01*
X-1127Y-5793D01*
X-1134Y-5794D01*
X-1142Y-5796D01*
X-1151Y-5797D01*
X-1169Y-5799D01*
X-1189Y-5800D01*
X-1194D01*
X-1197Y-5800D01*
X-1200D01*
X-1209Y-5799D01*
X-1218Y-5797D01*
X-1228Y-5795D01*
X-1238Y-5793D01*
X-1248Y-5789D01*
X-1249D01*
X-1249Y-5788D01*
X-1251Y-5788D01*
X-1252Y-5787D01*
X-1257Y-5784D01*
X-1263Y-5781D01*
X-1270Y-5777D01*
X-1276Y-5772D01*
X-1282Y-5767D01*
X-1287Y-5760D01*
X-1288Y-5759D01*
X-1289Y-5757D01*
X-1291Y-5753D01*
X-1294Y-5748D01*
X-1297Y-5741D01*
X-1300Y-5733D01*
X-1302Y-5723D01*
X-1304Y-5712D01*
Y-5712D01*
Y-5711D01*
X-1305Y-5710D01*
Y-5708D01*
X-1305Y-5705D01*
Y-5702D01*
X-1306Y-5698D01*
X-1306Y-5693D01*
X-1307Y-5688D01*
Y-5682D01*
X-1307Y-5675D01*
X-1308Y-5667D01*
Y-5658D01*
X-1308Y-5648D01*
Y-5637D01*
Y-5626D01*
Y-5423D01*
X-1364D01*
Y-5326D01*
X-1308D01*
Y-5234D01*
X-1185Y-5162D01*
Y-5326D01*
D02*
G37*
%LPC*%
G36*
X3874Y4210D02*
X3801D01*
Y3786D01*
X3912D01*
X3917Y3787D01*
X3922D01*
X3928Y3787D01*
X3941Y3788D01*
X3954Y3789D01*
X3966Y3790D01*
X3972Y3791D01*
X3976Y3792D01*
X3977D01*
X3978Y3793D01*
X3979Y3793D01*
X3981Y3794D01*
X3984Y3795D01*
X3987Y3796D01*
X3995Y3799D01*
X4003Y3802D01*
X4011Y3807D01*
X4020Y3812D01*
X4028Y3819D01*
X4029Y3819D01*
X4029Y3820D01*
X4030Y3820D01*
X4032Y3822D01*
X4034Y3824D01*
X4036Y3827D01*
X4038Y3830D01*
X4040Y3833D01*
X4043Y3838D01*
X4046Y3842D01*
X4049Y3847D01*
X4052Y3853D01*
X4054Y3859D01*
X4057Y3866D01*
X4060Y3873D01*
X4062Y3881D01*
Y3881D01*
X4063Y3882D01*
X4064Y3885D01*
X4065Y3888D01*
X4065Y3893D01*
X4066Y3898D01*
X4068Y3904D01*
X4069Y3912D01*
X4070Y3919D01*
X4071Y3928D01*
X4072Y3937D01*
X4074Y3948D01*
X4074Y3959D01*
X4075Y3971D01*
X4076Y3984D01*
Y3998D01*
Y3998D01*
Y4001D01*
Y4004D01*
Y4010D01*
X4075Y4016D01*
Y4023D01*
X4075Y4031D01*
X4074Y4040D01*
X4073Y4048D01*
X4072Y4058D01*
X4070Y4077D01*
X4068Y4086D01*
X4067Y4095D01*
X4065Y4103D01*
X4062Y4111D01*
Y4112D01*
X4062Y4113D01*
X4061Y4115D01*
X4060Y4118D01*
X4059Y4121D01*
X4057Y4125D01*
X4053Y4134D01*
X4047Y4144D01*
X4041Y4154D01*
X4034Y4164D01*
X4026Y4173D01*
X4025Y4174D01*
X4025Y4174D01*
X4023Y4176D01*
X4022Y4177D01*
X4019Y4179D01*
X4016Y4181D01*
X4010Y4185D01*
X4001Y4190D01*
X3991Y4195D01*
X3979Y4200D01*
X3966Y4203D01*
X3965D01*
X3964Y4204D01*
X3962D01*
X3960Y4204D01*
X3957Y4205D01*
X3953Y4205D01*
X3948Y4206D01*
X3942Y4206D01*
X3936Y4207D01*
X3928Y4208D01*
X3919Y4208D01*
X3909Y4209D01*
X3899Y4209D01*
X3887D01*
X3874Y4210D01*
D02*
G37*
G36*
X3769Y3111D02*
X3768D01*
X3768Y3110D01*
X3766Y3110D01*
X3764Y3109D01*
X3762Y3108D01*
X3758Y3107D01*
X3755Y3106D01*
X3750Y3105D01*
X3745Y3104D01*
X3740Y3103D01*
X3734Y3101D01*
X3727Y3099D01*
X3719Y3098D01*
X3711Y3096D01*
X3703Y3093D01*
X3693Y3092D01*
X3693D01*
X3691Y3091D01*
X3689Y3091D01*
X3685Y3090D01*
X3681Y3089D01*
X3676Y3087D01*
X3666Y3085D01*
X3655Y3081D01*
X3644Y3078D01*
X3639Y3076D01*
X3634Y3074D01*
X3630Y3072D01*
X3627Y3070D01*
X3626D01*
X3626Y3069D01*
X3623Y3067D01*
X3619Y3063D01*
X3615Y3058D01*
X3611Y3052D01*
X3607Y3045D01*
X3604Y3036D01*
X3604Y3031D01*
X3603Y3027D01*
Y3026D01*
Y3026D01*
Y3025D01*
X3604Y3023D01*
X3604Y3018D01*
X3605Y3012D01*
X3608Y3005D01*
X3611Y2997D01*
X3616Y2990D01*
X3622Y2982D01*
X3623Y2982D01*
X3626Y2980D01*
X3630Y2976D01*
X3636Y2973D01*
X3642Y2970D01*
X3651Y2967D01*
X3660Y2965D01*
X3671Y2964D01*
X3674D01*
X3677Y2964D01*
X3680D01*
X3683Y2965D01*
X3691Y2967D01*
X3701Y2970D01*
X3712Y2973D01*
X3723Y2979D01*
X3729Y2982D01*
X3734Y2986D01*
X3735D01*
X3735Y2987D01*
X3738Y2988D01*
X3742Y2992D01*
X3746Y2997D01*
X3752Y3003D01*
X3756Y3010D01*
X3760Y3018D01*
X3764Y3026D01*
X3764Y3027D01*
X3764Y3029D01*
X3765Y3031D01*
X3765Y3033D01*
X3766Y3036D01*
X3766Y3039D01*
X3767Y3043D01*
X3767Y3048D01*
Y3052D01*
X3768Y3058D01*
X3768Y3064D01*
X3769Y3071D01*
Y3078D01*
Y3086D01*
Y3111D01*
D02*
G37*
G36*
X6279Y3268D02*
X6276D01*
X6273Y3268D01*
X6269Y3267D01*
X6265Y3267D01*
X6261Y3266D01*
X6256Y3264D01*
X6246Y3261D01*
X6240Y3258D01*
X6234Y3256D01*
X6228Y3252D01*
X6223Y3248D01*
X6218Y3244D01*
X6213Y3239D01*
X6212Y3238D01*
X6212Y3237D01*
X6210Y3235D01*
X6209Y3233D01*
X6207Y3230D01*
X6204Y3227D01*
X6202Y3222D01*
X6200Y3218D01*
X6197Y3212D01*
X6195Y3206D01*
X6193Y3200D01*
X6191Y3193D01*
X6189Y3185D01*
X6188Y3177D01*
X6187Y3168D01*
Y3159D01*
X6371D01*
Y3160D01*
Y3161D01*
X6370Y3164D01*
Y3168D01*
X6370Y3172D01*
X6369Y3178D01*
X6368Y3183D01*
X6367Y3189D01*
X6363Y3202D01*
X6358Y3215D01*
X6356Y3222D01*
X6352Y3228D01*
X6348Y3234D01*
X6343Y3240D01*
X6343Y3240D01*
X6342Y3241D01*
X6340Y3243D01*
X6338Y3245D01*
X6336Y3246D01*
X6333Y3249D01*
X6329Y3251D01*
X6325Y3254D01*
X6316Y3259D01*
X6305Y3264D01*
X6299Y3265D01*
X6293Y3267D01*
X6286Y3268D01*
X6279Y3268D01*
D02*
G37*
G36*
X4690D02*
X4687D01*
X4684Y3268D01*
X4680Y3267D01*
X4676Y3267D01*
X4672Y3266D01*
X4667Y3264D01*
X4657Y3261D01*
X4651Y3258D01*
X4646Y3256D01*
X4640Y3252D01*
X4635Y3248D01*
X4629Y3244D01*
X4624Y3239D01*
X4623Y3238D01*
X4623Y3237D01*
X4622Y3235D01*
X4620Y3233D01*
X4618Y3230D01*
X4616Y3227D01*
X4613Y3222D01*
X4611Y3218D01*
X4608Y3212D01*
X4606Y3206D01*
X4604Y3200D01*
X4602Y3193D01*
X4600Y3185D01*
X4599Y3177D01*
X4598Y3168D01*
Y3159D01*
X4782D01*
Y3160D01*
Y3161D01*
X4782Y3164D01*
Y3168D01*
X4781Y3172D01*
X4780Y3178D01*
X4779Y3183D01*
X4778Y3189D01*
X4775Y3202D01*
X4769Y3215D01*
X4767Y3222D01*
X4763Y3228D01*
X4759Y3234D01*
X4754Y3240D01*
X4754Y3240D01*
X4753Y3241D01*
X4751Y3243D01*
X4750Y3245D01*
X4747Y3246D01*
X4744Y3249D01*
X4740Y3251D01*
X4736Y3254D01*
X4727Y3259D01*
X4716Y3264D01*
X4710Y3265D01*
X4704Y3267D01*
X4697Y3268D01*
X4690Y3268D01*
D02*
G37*
G36*
X5748D02*
X5744D01*
X5741Y3268D01*
X5737Y3267D01*
X5733Y3266D01*
X5728Y3265D01*
X5723Y3264D01*
X5717Y3262D01*
X5711Y3260D01*
X5705Y3257D01*
X5699Y3253D01*
X5693Y3250D01*
X5687Y3245D01*
X5681Y3239D01*
X5676Y3233D01*
X5675Y3233D01*
X5674Y3232D01*
X5673Y3230D01*
X5671Y3227D01*
X5669Y3223D01*
X5667Y3219D01*
X5664Y3214D01*
X5662Y3208D01*
X5659Y3201D01*
X5656Y3193D01*
X5654Y3184D01*
X5652Y3175D01*
X5650Y3165D01*
X5649Y3154D01*
X5648Y3142D01*
X5647Y3129D01*
Y3128D01*
Y3126D01*
Y3122D01*
X5648Y3117D01*
X5648Y3111D01*
X5649Y3104D01*
X5650Y3096D01*
X5651Y3088D01*
X5654Y3070D01*
X5657Y3062D01*
X5659Y3053D01*
X5663Y3044D01*
X5666Y3036D01*
X5670Y3028D01*
X5676Y3021D01*
X5676Y3021D01*
X5677Y3020D01*
X5678Y3018D01*
X5681Y3016D01*
X5683Y3013D01*
X5687Y3011D01*
X5691Y3007D01*
X5695Y3004D01*
X5700Y3001D01*
X5706Y2998D01*
X5718Y2993D01*
X5724Y2990D01*
X5731Y2988D01*
X5738Y2988D01*
X5746Y2987D01*
X5748D01*
X5750Y2988D01*
X5754D01*
X5758Y2988D01*
X5762Y2989D01*
X5767Y2990D01*
X5773Y2992D01*
X5779Y2994D01*
X5785Y2996D01*
X5791Y2999D01*
X5797Y3002D01*
X5804Y3006D01*
X5810Y3011D01*
X5816Y3016D01*
X5822Y3022D01*
X5823Y3023D01*
X5824Y3024D01*
X5825Y3026D01*
X5827Y3029D01*
X5830Y3032D01*
X5832Y3037D01*
X5835Y3042D01*
X5838Y3049D01*
X5841Y3055D01*
X5843Y3063D01*
X5846Y3072D01*
X5848Y3081D01*
X5850Y3091D01*
X5852Y3102D01*
X5853Y3114D01*
X5853Y3126D01*
Y3127D01*
Y3129D01*
Y3133D01*
X5853Y3138D01*
X5852Y3144D01*
X5852Y3151D01*
X5851Y3158D01*
X5849Y3166D01*
X5846Y3184D01*
X5843Y3193D01*
X5841Y3202D01*
X5837Y3210D01*
X5833Y3218D01*
X5828Y3226D01*
X5823Y3233D01*
X5823Y3233D01*
X5822Y3234D01*
X5820Y3236D01*
X5818Y3239D01*
X5815Y3241D01*
X5811Y3244D01*
X5807Y3247D01*
X5803Y3251D01*
X5798Y3254D01*
X5792Y3257D01*
X5786Y3260D01*
X5779Y3263D01*
X5772Y3265D01*
X5764Y3267D01*
X5756Y3268D01*
X5748Y3268D01*
D02*
G37*
G36*
X-13Y-4631D02*
X-17D01*
X-20Y-4631D01*
X-23Y-4632D01*
X-27Y-4632D01*
X-32Y-4633D01*
X-37Y-4635D01*
X-47Y-4638D01*
X-52Y-4641D01*
X-58Y-4643D01*
X-64Y-4647D01*
X-69Y-4651D01*
X-75Y-4655D01*
X-80Y-4661D01*
X-80Y-4661D01*
X-81Y-4662D01*
X-82Y-4664D01*
X-84Y-4666D01*
X-86Y-4669D01*
X-88Y-4673D01*
X-90Y-4677D01*
X-93Y-4681D01*
X-95Y-4687D01*
X-98Y-4693D01*
X-100Y-4699D01*
X-102Y-4706D01*
X-103Y-4714D01*
X-105Y-4722D01*
X-106Y-4731D01*
Y-4740D01*
X78D01*
Y-4740D01*
Y-4738D01*
X78Y-4735D01*
Y-4731D01*
X78Y-4727D01*
X77Y-4722D01*
X76Y-4716D01*
X74Y-4710D01*
X71Y-4697D01*
X66Y-4684D01*
X63Y-4677D01*
X59Y-4671D01*
X55Y-4665D01*
X51Y-4659D01*
X50Y-4659D01*
X49Y-4658D01*
X48Y-4656D01*
X46Y-4655D01*
X43Y-4653D01*
X41Y-4650D01*
X37Y-4648D01*
X33Y-4645D01*
X23Y-4640D01*
X13Y-4635D01*
X7Y-4634D01*
X0Y-4632D01*
X-6Y-4631D01*
X-13Y-4631D01*
D02*
G37*
G36*
X-1305D02*
X-1308D01*
X-1311Y-4631D01*
X-1315Y-4632D01*
X-1319Y-4632D01*
X-1323Y-4633D01*
X-1328Y-4635D01*
X-1338Y-4638D01*
X-1344Y-4641D01*
X-1350Y-4643D01*
X-1356Y-4647D01*
X-1361Y-4651D01*
X-1366Y-4655D01*
X-1371Y-4661D01*
X-1372Y-4661D01*
X-1372Y-4662D01*
X-1374Y-4664D01*
X-1375Y-4666D01*
X-1377Y-4669D01*
X-1380Y-4673D01*
X-1382Y-4677D01*
X-1384Y-4681D01*
X-1387Y-4687D01*
X-1389Y-4693D01*
X-1391Y-4699D01*
X-1393Y-4706D01*
X-1395Y-4714D01*
X-1396Y-4722D01*
X-1397Y-4731D01*
Y-4740D01*
X-1213D01*
Y-4740D01*
Y-4738D01*
X-1214Y-4735D01*
Y-4731D01*
X-1214Y-4727D01*
X-1215Y-4722D01*
X-1216Y-4716D01*
X-1217Y-4710D01*
X-1221Y-4697D01*
X-1226Y-4684D01*
X-1228Y-4677D01*
X-1232Y-4671D01*
X-1236Y-4665D01*
X-1241Y-4659D01*
X-1241Y-4659D01*
X-1242Y-4658D01*
X-1244Y-4656D01*
X-1246Y-4655D01*
X-1248Y-4653D01*
X-1251Y-4650D01*
X-1255Y-4648D01*
X-1259Y-4645D01*
X-1268Y-4640D01*
X-1279Y-4635D01*
X-1285Y-4634D01*
X-1291Y-4632D01*
X-1298Y-4631D01*
X-1305Y-4631D01*
D02*
G37*
G36*
X-1908Y-5409D02*
X-1912D01*
X-1915Y-5410D01*
X-1919Y-5410D01*
X-1923Y-5411D01*
X-1928Y-5412D01*
X-1933Y-5414D01*
X-1939Y-5415D01*
X-1945Y-5418D01*
X-1951Y-5421D01*
X-1957Y-5424D01*
X-1963Y-5428D01*
X-1969Y-5433D01*
X-1975Y-5438D01*
X-1981Y-5445D01*
X-1981Y-5445D01*
X-1982Y-5446D01*
X-1983Y-5448D01*
X-1985Y-5451D01*
X-1988Y-5455D01*
X-1990Y-5459D01*
X-1993Y-5464D01*
X-1995Y-5470D01*
X-1998Y-5477D01*
X-2000Y-5485D01*
X-2003Y-5494D01*
X-2005Y-5503D01*
X-2007Y-5513D01*
X-2008Y-5524D01*
X-2009Y-5536D01*
X-2010Y-5548D01*
Y-5549D01*
Y-5551D01*
Y-5555D01*
X-2009Y-5560D01*
Y-5566D01*
X-2009Y-5573D01*
X-2008Y-5581D01*
X-2007Y-5589D01*
X-2005Y-5607D01*
X-2001Y-5624D01*
X-1999Y-5633D01*
X-1996Y-5641D01*
X-1993Y-5648D01*
X-1989Y-5655D01*
X-1989Y-5656D01*
X-1988Y-5657D01*
X-1986Y-5659D01*
X-1984Y-5663D01*
X-1981Y-5666D01*
X-1977Y-5671D01*
X-1973Y-5675D01*
X-1968Y-5679D01*
X-1963Y-5684D01*
X-1956Y-5688D01*
X-1949Y-5692D01*
X-1942Y-5696D01*
X-1934Y-5698D01*
X-1926Y-5701D01*
X-1916Y-5702D01*
X-1907Y-5703D01*
X-1905D01*
X-1902Y-5702D01*
X-1900D01*
X-1896Y-5702D01*
X-1892Y-5701D01*
X-1887Y-5700D01*
X-1882Y-5698D01*
X-1877Y-5696D01*
X-1871Y-5694D01*
X-1865Y-5691D01*
X-1859Y-5688D01*
X-1853Y-5684D01*
X-1847Y-5679D01*
X-1840Y-5674D01*
X-1835Y-5667D01*
X-1834Y-5667D01*
X-1834Y-5665D01*
X-1832Y-5664D01*
X-1830Y-5660D01*
X-1828Y-5657D01*
X-1825Y-5652D01*
X-1823Y-5647D01*
X-1820Y-5641D01*
X-1817Y-5633D01*
X-1815Y-5625D01*
X-1812Y-5616D01*
X-1810Y-5607D01*
X-1808Y-5596D01*
X-1806Y-5585D01*
X-1805Y-5573D01*
X-1805Y-5560D01*
Y-5559D01*
Y-5559D01*
Y-5556D01*
Y-5552D01*
X-1805Y-5547D01*
X-1806Y-5540D01*
X-1806Y-5532D01*
X-1807Y-5524D01*
X-1809Y-5515D01*
X-1812Y-5496D01*
X-1814Y-5487D01*
X-1817Y-5477D01*
X-1821Y-5468D01*
X-1824Y-5459D01*
X-1829Y-5451D01*
X-1834Y-5445D01*
X-1834Y-5444D01*
X-1835Y-5443D01*
X-1837Y-5441D01*
X-1839Y-5439D01*
X-1842Y-5436D01*
X-1846Y-5433D01*
X-1849Y-5430D01*
X-1854Y-5427D01*
X-1859Y-5424D01*
X-1865Y-5420D01*
X-1871Y-5418D01*
X-1877Y-5415D01*
X-1884Y-5413D01*
X-1891Y-5411D01*
X-1899Y-5410D01*
X-1908Y-5409D01*
D02*
G37*
G36*
X-557Y-5415D02*
X-562D01*
X-565Y-5416D01*
X-569Y-5416D01*
X-574Y-5417D01*
X-579Y-5419D01*
X-585Y-5420D01*
X-591Y-5422D01*
X-598Y-5424D01*
X-605Y-5427D01*
X-612Y-5431D01*
X-618Y-5435D01*
X-625Y-5440D01*
X-632Y-5446D01*
X-638Y-5452D01*
X-639Y-5453D01*
X-640Y-5454D01*
X-641Y-5456D01*
X-643Y-5459D01*
X-646Y-5463D01*
X-648Y-5468D01*
X-651Y-5473D01*
X-654Y-5479D01*
X-657Y-5486D01*
X-660Y-5494D01*
X-663Y-5503D01*
X-665Y-5512D01*
X-668Y-5523D01*
X-669Y-5533D01*
X-670Y-5545D01*
X-670Y-5558D01*
Y-5559D01*
Y-5561D01*
Y-5564D01*
X-670Y-5569D01*
X-670Y-5575D01*
X-669Y-5582D01*
X-668Y-5589D01*
X-666Y-5597D01*
X-665Y-5605D01*
X-663Y-5614D01*
X-660Y-5623D01*
X-657Y-5632D01*
X-653Y-5640D01*
X-649Y-5648D01*
X-644Y-5656D01*
X-638Y-5664D01*
X-638Y-5664D01*
X-637Y-5665D01*
X-635Y-5667D01*
X-632Y-5669D01*
X-629Y-5672D01*
X-625Y-5675D01*
X-621Y-5678D01*
X-615Y-5682D01*
X-610Y-5685D01*
X-604Y-5689D01*
X-597Y-5692D01*
X-590Y-5695D01*
X-583Y-5697D01*
X-574Y-5699D01*
X-566Y-5700D01*
X-557Y-5700D01*
X-555D01*
X-553Y-5700D01*
X-549D01*
X-545Y-5699D01*
X-540Y-5698D01*
X-535Y-5697D01*
X-529Y-5696D01*
X-523Y-5694D01*
X-517Y-5691D01*
X-510Y-5688D01*
X-503Y-5685D01*
X-496Y-5681D01*
X-490Y-5676D01*
X-483Y-5670D01*
X-477Y-5664D01*
X-476Y-5663D01*
X-475Y-5662D01*
X-474Y-5660D01*
X-472Y-5657D01*
X-469Y-5653D01*
X-467Y-5648D01*
X-463Y-5643D01*
X-460Y-5637D01*
X-457Y-5629D01*
X-454Y-5622D01*
X-451Y-5613D01*
X-449Y-5604D01*
X-447Y-5593D01*
X-445Y-5582D01*
X-444Y-5570D01*
X-444Y-5557D01*
Y-5556D01*
Y-5554D01*
Y-5551D01*
X-444Y-5546D01*
X-445Y-5540D01*
X-446Y-5534D01*
X-447Y-5526D01*
X-448Y-5518D01*
X-450Y-5510D01*
X-452Y-5502D01*
X-455Y-5493D01*
X-458Y-5484D01*
X-462Y-5475D01*
X-466Y-5467D01*
X-471Y-5460D01*
X-477Y-5452D01*
X-477Y-5452D01*
X-478Y-5451D01*
X-480Y-5449D01*
X-483Y-5446D01*
X-486Y-5444D01*
X-490Y-5441D01*
X-494Y-5437D01*
X-499Y-5434D01*
X-505Y-5431D01*
X-511Y-5427D01*
X-517Y-5424D01*
X-524Y-5421D01*
X-532Y-5419D01*
X-540Y-5417D01*
X-548Y-5416D01*
X-557Y-5415D01*
D02*
G37*
%LPD*%
D25*
X-6228Y-4525D02*
G03*
X-6011Y-4809I6229J4526D01*
G01*
X-7638Y-968D02*
G03*
X-6228Y-4525I7639J969D01*
G01*
X-7638Y-968D02*
G03*
X-7627Y1002I1068J979D01*
G01*
X-7640Y-966D02*
G03*
X-7638Y-968I1070J977D01*
G01*
X-7638Y-965D02*
G03*
X-7638Y-968I7639J967D01*
G01*
X7635Y1001D02*
G03*
X-7634Y1003I-7635J-1001D01*
G01*
X7627Y1000D02*
G03*
X7633Y-968I-1060J-988D01*
G01*
X-6011Y-4809D02*
G03*
X7639Y-974I6012J4810D01*
G01*
X1825Y-4900D02*
X3560D01*
X-1050Y-4150D02*
X1075D01*
X1825Y-4900D01*
X-1254Y-3946D02*
X-1050Y-4150D01*
X-750Y-3675D02*
Y-3625D01*
X-754Y-3621D02*
Y-2750D01*
Y-3621D02*
X-750Y-3625D01*
X-4291Y5906D02*
X-3821Y5259D01*
X1200Y4925D02*
Y5625D01*
Y4225D02*
Y4925D01*
X1175Y4900D02*
X1200Y4925D01*
X725Y4900D02*
X1175D01*
X-275D02*
Y5255D01*
X-0Y5530D02*
X0D01*
X-275Y5255D02*
X-0Y5530D01*
X-1800Y5500D02*
X-975Y6325D01*
X1675D02*
X2741Y5259D01*
X-975Y6325D02*
X1675D01*
X225Y1950D02*
Y2500D01*
X-20Y1770D02*
X45D01*
X225Y1950D01*
X-1546Y3221D02*
Y5279D01*
X-94Y1770D02*
X-20D01*
X-1546Y3221D02*
X-94Y1770D01*
X-2444Y2281D02*
X-2412Y2250D01*
X-1150Y1200D02*
X-254Y304D01*
X-3170Y1200D02*
X-1150D01*
X-1800Y2950D02*
Y5500D01*
X-2100Y2875D02*
Y4800D01*
X-430Y846D02*
X-414D01*
X-325Y1100D02*
X-309D01*
X-1800Y2950D02*
X-200Y1350D01*
X-2100Y2875D02*
X-325Y1100D01*
X-2412Y2250D02*
X-1834D01*
X-430Y846D01*
X-1546Y5279D02*
X-879Y5946D01*
X879D01*
X1200Y5625D01*
X1796Y-1200D02*
X1796Y-1200D01*
X3950D01*
X4750Y-2000D01*
Y-3425D02*
Y-2000D01*
X3150Y-2925D02*
X3475Y-3250D01*
X3560Y-4900D02*
X4291Y-5906D01*
X-1975Y-2475D02*
X-1550Y-2050D01*
X-1100D02*
X-500Y-1450D01*
X-1550Y-2050D02*
X-1100D01*
X-2700Y-2475D02*
X-1975D01*
X-3150Y-150D02*
X-1254Y-150D01*
X-4755Y1545D02*
X-3975Y765D01*
Y-600D02*
X-2875Y-1700D01*
X-3975Y-600D02*
Y765D01*
X2741Y5259D02*
X3821D01*
X4291Y5906D01*
X-6228Y-4525D02*
X-4017Y-2925D01*
X-6229Y-4526D02*
X-6228Y-4525D01*
X-6943Y2256D02*
X-4755Y1545D01*
X6182Y-2009D02*
X6943Y-2256D01*
X0Y-7300D02*
Y-6500D01*
X-4291Y-5906D02*
X-3821Y-5259D01*
X-6943Y-2256D02*
X-6182Y-2009D01*
X6182Y2009D02*
X6943Y2256D01*
X246Y-1704D02*
X500Y-1450D01*
X1067Y-3600D02*
X1246Y-3421D01*
X375Y-3600D02*
X1067D01*
X246Y-3471D02*
X375Y-3600D01*
X246Y-3471D02*
Y-2750D01*
Y-1704D01*
X-750Y-1200D02*
X-500Y-1450D01*
X-1804Y-1200D02*
X-750D01*
X-2875Y-1700D02*
X-1804D01*
X-410Y842D02*
X-67D01*
X246Y-150D02*
Y529D01*
X-67Y842D02*
X246Y529D01*
X-254Y-150D02*
Y304D01*
X-3150Y525D02*
X-900D01*
X-754Y379D01*
Y-150D02*
Y379D01*
X-305Y1096D02*
X529D01*
X-414Y846D02*
X-410Y842D01*
X-309Y1100D02*
X-305Y1096D01*
X-200Y1350D02*
X650D01*
X1246Y754D01*
X746Y-150D02*
Y879D01*
X529Y1096D02*
X746Y879D01*
X-4017Y-2925D02*
X-2700D01*
X-2100Y4800D02*
Y5700D01*
X-200Y6700D02*
X0Y6900D01*
X-2100Y5700D02*
X-1100Y6700D01*
X0Y6900D02*
Y7300D01*
X-1100Y6700D02*
X-200D01*
X1246Y-150D02*
Y754D01*
X-1254Y-3946D02*
Y-2750D01*
X2675Y-2925D02*
X3150D01*
X2675Y-3325D02*
Y-2925D01*
X2400Y-3600D02*
X2675Y-3325D01*
X1425Y-3600D02*
X2400D01*
X1246Y-3421D02*
X1425Y-3600D01*
X1246Y-3421D02*
Y-2750D01*
X3175Y-2475D02*
X3500Y-2150D01*
X2675Y-2475D02*
X3175D01*
X2675D02*
Y-1900D01*
X2475Y-1700D02*
X2675Y-1900D01*
X1796Y-1700D02*
X2475D01*
X1311Y-890D02*
X1346D01*
X1875Y-360D01*
X1267Y-890D02*
X1311D01*
X1137Y-1020D02*
X1267Y-890D01*
X1137Y-1064D02*
Y-1020D01*
Y-1988D02*
Y-1064D01*
X1875Y-360D02*
Y2800D01*
X746Y-2379D02*
X1137Y-1988D01*
X746Y-2750D02*
Y-2379D01*
X1475Y3200D02*
X1875Y2800D01*
X500Y3200D02*
X1475D01*
X1175Y2475D02*
Y2625D01*
X100Y2825D02*
X975D01*
X1175Y2625D01*
X-1200Y3775D02*
X-925D01*
X-850Y3700D02*
X-500D01*
X-925Y3775D02*
X-850Y3700D01*
X-1200Y4225D02*
Y4725D01*
X-1025Y4900D01*
X-725D01*
Y4425D02*
Y4900D01*
Y4425D02*
X-500Y4200D01*
X-275Y4900D02*
X250D01*
X275D01*
X250Y4625D02*
Y4900D01*
X0Y4375D02*
X250Y4625D01*
X0Y4200D02*
Y4375D01*
X725Y4900D02*
Y4925D01*
Y4425D02*
Y4900D01*
X500Y4200D02*
X725Y4425D01*
X500Y3700D02*
X1125D01*
X-500D02*
X500D01*
X1125D02*
X1200Y3775D01*
X0Y2925D02*
X100Y2825D01*
X0Y2925D02*
Y3200D01*
X-500Y2775D02*
X-225Y2500D01*
X-500Y2775D02*
Y3200D01*
D26*
X0Y7700D02*
D03*
Y7300D02*
D03*
Y-7700D02*
D03*
Y-7300D02*
D03*
D27*
X4526Y6229D02*
D03*
X4291Y5906D02*
D03*
X-4526Y-6229D02*
D03*
X-4291Y-5906D02*
D03*
D28*
X7323Y2379D02*
D03*
X6943Y2256D02*
D03*
X-7323Y-2379D02*
D03*
X-6943Y-2256D02*
D03*
D29*
X-725Y4900D02*
D03*
X-275D02*
D03*
X725D02*
D03*
X275D02*
D03*
X225Y2500D02*
D03*
X-225D02*
D03*
D30*
X7323Y-2379D02*
D03*
X6943Y-2256D02*
D03*
X-7323Y2379D02*
D03*
X-6943Y2256D02*
D03*
D31*
X1246Y-150D02*
D03*
X746D02*
D03*
X246D02*
D03*
X-254D02*
D03*
X-754D02*
D03*
X-1254D02*
D03*
Y-2750D02*
D03*
X-754D02*
D03*
X-254D02*
D03*
X246D02*
D03*
X746D02*
D03*
X1246D02*
D03*
D32*
X-1804Y-1200D02*
D03*
Y-1700D02*
D03*
X1796D02*
D03*
Y-1200D02*
D03*
D33*
X-4Y-1450D02*
D03*
D34*
X2675Y-2925D02*
D03*
Y-2475D02*
D03*
X-1200Y3775D02*
D03*
Y4225D02*
D03*
X1200Y4225D02*
D03*
Y3775D02*
D03*
X-2700Y-2475D02*
D03*
Y-2925D02*
D03*
D35*
X-500Y4200D02*
D03*
X0D02*
D03*
X500D02*
D03*
X-500Y3700D02*
D03*
X500D02*
D03*
X-500Y3200D02*
D03*
X0D02*
D03*
X500D02*
D03*
D36*
X4526Y-6229D02*
D03*
X4291Y-5906D02*
D03*
X-4526Y6229D02*
D03*
X-4291Y5906D02*
D03*
D37*
X-6600Y0D02*
D03*
X6600D02*
D03*
D38*
X-750Y-3675D02*
D03*
X6182Y2009D02*
D03*
X-3821Y5259D02*
D03*
X0Y5530D02*
D03*
X-2444Y2281D02*
D03*
X-3170Y1200D02*
D03*
X4750Y-3425D02*
D03*
X3475Y-3250D02*
D03*
X-3150Y-150D02*
D03*
X6182Y-2009D02*
D03*
X0Y-6500D02*
D03*
X-3821Y-5259D02*
D03*
X-6182Y-2009D02*
D03*
X-20Y1770D02*
D03*
X-3150Y525D02*
D03*
X3500Y-2150D02*
D03*
X1175Y2475D02*
D03*
X500Y-1450D02*
D03*
X-500D02*
D03*
M02*
