G04*
G04 #@! TF.GenerationSoftware,Altium Limited,Altium Designer,20.1.14 (287)*
G04*
G04 Layer_Color=8388736*
%FSLAX43Y43*%
%MOMM*%
G71*
G04*
G04 #@! TF.SameCoordinates,4F5269AA-7076-45A1-A172-B2B228468667*
G04*
G04*
G04 #@! TF.FilePolarity,Negative*
G04*
G01*
G75*
%ADD13R,0.450X0.300*%
G04:AMPARAMS|DCode=14|XSize=0.45mm|YSize=0.3mm|CornerRadius=0mm|HoleSize=0mm|Usage=FLASHONLY|Rotation=324.000|XOffset=0mm|YOffset=0mm|HoleType=Round|Shape=Rectangle|*
%AMROTATEDRECTD14*
4,1,4,-0.270,0.011,-0.094,0.254,0.270,-0.011,0.094,-0.254,-0.270,0.011,0.0*
%
%ADD14ROTATEDRECTD14*%

G04:AMPARAMS|DCode=15|XSize=0.45mm|YSize=0.3mm|CornerRadius=0mm|HoleSize=0mm|Usage=FLASHONLY|Rotation=288.000|XOffset=0mm|YOffset=0mm|HoleType=Round|Shape=Rectangle|*
%AMROTATEDRECTD15*
4,1,4,-0.212,0.168,0.073,0.260,0.212,-0.168,-0.073,-0.260,-0.212,0.168,0.0*
%
%ADD15ROTATEDRECTD15*%

%ADD16R,0.350X0.300*%
G04:AMPARAMS|DCode=17|XSize=0.45mm|YSize=0.3mm|CornerRadius=0mm|HoleSize=0mm|Usage=FLASHONLY|Rotation=252.000|XOffset=0mm|YOffset=0mm|HoleType=Round|Shape=Rectangle|*
%AMROTATEDRECTD17*
4,1,4,-0.073,0.260,0.212,0.168,0.073,-0.260,-0.212,-0.168,-0.073,0.260,0.0*
%
%ADD17ROTATEDRECTD17*%

%ADD18R,0.340X1.000*%
%ADD19R,1.000X0.340*%
%ADD20R,2.000X1.000*%
%ADD21R,0.300X0.350*%
%ADD22C,0.260*%
G04:AMPARAMS|DCode=23|XSize=0.45mm|YSize=0.3mm|CornerRadius=0mm|HoleSize=0mm|Usage=FLASHONLY|Rotation=216.000|XOffset=0mm|YOffset=0mm|HoleType=Round|Shape=Rectangle|*
%AMROTATEDRECTD23*
4,1,4,0.094,0.254,0.270,0.011,-0.094,-0.254,-0.270,-0.011,0.094,0.254,0.0*
%
%ADD23ROTATEDRECTD23*%

%ADD24C,2.500*%
D13*
X0Y7700D02*
D03*
Y7300D02*
D03*
Y-7700D02*
D03*
Y-7300D02*
D03*
D14*
X4526Y6229D02*
D03*
X4291Y5906D02*
D03*
X-4526Y-6229D02*
D03*
X-4291Y-5906D02*
D03*
D15*
X7323Y2379D02*
D03*
X6943Y2256D02*
D03*
X-7323Y-2379D02*
D03*
X-6943Y-2256D02*
D03*
D16*
X-725Y4900D02*
D03*
X-275D02*
D03*
X725D02*
D03*
X275D02*
D03*
X225Y2500D02*
D03*
X-225D02*
D03*
D17*
X7323Y-2379D02*
D03*
X6943Y-2256D02*
D03*
X-7323Y2379D02*
D03*
X-6943Y2256D02*
D03*
D18*
X1246Y-150D02*
D03*
X746D02*
D03*
X246D02*
D03*
X-254D02*
D03*
X-754D02*
D03*
X-1254D02*
D03*
Y-2750D02*
D03*
X-754D02*
D03*
X-254D02*
D03*
X246D02*
D03*
X746D02*
D03*
X1246D02*
D03*
D19*
X-1804Y-1200D02*
D03*
Y-1700D02*
D03*
X1796D02*
D03*
Y-1200D02*
D03*
D20*
X-4Y-1450D02*
D03*
D21*
X2675Y-2925D02*
D03*
Y-2475D02*
D03*
X-1200Y3775D02*
D03*
Y4225D02*
D03*
X1200Y4225D02*
D03*
Y3775D02*
D03*
X-2700Y-2475D02*
D03*
Y-2925D02*
D03*
D22*
X-500Y4200D02*
D03*
X0D02*
D03*
X500D02*
D03*
X-500Y3700D02*
D03*
X500D02*
D03*
X-500Y3200D02*
D03*
X0D02*
D03*
X500D02*
D03*
D23*
X4526Y-6229D02*
D03*
X4291Y-5906D02*
D03*
X-4526Y6229D02*
D03*
X-4291Y5906D02*
D03*
D24*
X-6600Y0D02*
D03*
X6600D02*
D03*
M02*
